<?xml version="1.0" encoding="UTF-8"?>
<!DOCTYPE svg PUBLIC "-//W3C//DTD SVG 1.1//EN" "http://www.w3.org/Graphics/SVG/1.1/DTD/svg11.dtd">
<svg xmlns="http://www.w3.org/2000/svg" version="1.1" width="5000px" height="5000px" style="shape-rendering:geometricPrecision; text-rendering:geometricPrecision; image-rendering:optimizeQuality; fill-rule:evenodd; clip-rule:evenodd" xmlns:xlink="http://www.w3.org/1999/xlink">
<g><path style="opacity:1" fill="#fefffe" d="M -0.5,-0.5 C 1666.17,-0.5 3332.83,-0.5 4999.5,-0.5C 4999.5,1666.17 4999.5,3332.83 4999.5,4999.5C 3332.83,4999.5 1666.17,4999.5 -0.5,4999.5C -0.5,3332.83 -0.5,1666.17 -0.5,-0.5 Z"/></g>
<g><path style="opacity:1" fill="#434343" d="M 4927.5,211.5 C 3308.83,211.5 1690.17,211.5 71.5,211.5C 71.5,1736.83 71.5,3262.17 71.5,4787.5C 1690.17,4787.5 3308.83,4787.5 4927.5,4787.5C 3308.67,4788.5 1689.67,4788.83 70.5,4788.5C 70.5,3262.5 70.5,1736.5 70.5,210.5C 1689.67,210.167 3308.67,210.5 4927.5,211.5 Z"/></g>
<g><path style="opacity:1" fill="#000000" d="M 4927.5,211.5 C 4927.5,1736.83 4927.5,3262.17 4927.5,4787.5C 3308.83,4787.5 1690.17,4787.5 71.5,4787.5C 71.5,3262.17 71.5,1736.83 71.5,211.5C 1690.17,211.5 3308.83,211.5 4927.5,211.5 Z"/></g>
<g><path style="opacity:1" fill="#fefefe" d="M 820.5,1130.5 C 962.834,1130.33 1105.17,1130.5 1247.5,1131C 1393.6,1141.78 1509.44,1205.94 1595,1323.5C 1644.27,1393.96 1671.27,1472.3 1676,1558.5C 1676.5,1766.83 1676.67,1975.17 1676.5,2183.5C 1500.83,2183.5 1325.17,2183.5 1149.5,2183.5C 1149.67,2016.5 1149.5,1849.5 1149,1682.5C 1139.82,1627.65 1107.99,1594.82 1053.5,1584C 1005.78,1578.45 968.277,1595.28 941,1634.5C 931.938,1650.02 926.271,1666.69 924,1684.5C 923.833,1938.17 923.667,2191.83 923.5,2445.5C 923.667,2699.17 923.833,2952.83 924,3206.5C 932.829,3271.16 969.663,3306.83 1034.5,3313.5C 1098.66,3308.5 1136.83,3274.5 1149,3211.5C 1149.5,2994.5 1149.67,2777.5 1149.5,2560.5C 1325.17,2560.5 1500.83,2560.5 1676.5,2560.5C 1676.67,2698.83 1676.5,2837.17 1676,2975.5C 1666.03,3102.28 1613.86,3207.78 1519.5,3292C 1344.17,3438 1168.83,3584 993.5,3730C 968.972,3748.76 941.306,3760.09 910.5,3764C 822.905,3771.73 738.905,3758.07 658.5,3723C 533.424,3662.25 451.257,3565.08 412,3431.5C 403.649,3400.38 398.649,3368.71 397,3336.5C 396.333,2743.83 396.333,2151.17 397,1558.5C 410.955,1390.64 490.788,1265.47 636.5,1183C 694.406,1153.03 755.74,1135.53 820.5,1130.5 Z"/></g>
<g><path style="opacity:1" fill="#fefefe" d="M 2181.5,1130.5 C 2422.17,1130.5 2662.83,1130.5 2903.5,1130.5C 3042.33,1782.48 3180.83,2434.48 3319,3086.5C 3059.93,2871.05 2800.76,2655.71 2541.5,2440.5C 2282.91,2655.71 2024.41,2871.05 1766,3086.5C 1766.01,3081.46 1766.67,3076.46 1768,3071.5C 1905.99,2424.54 2043.82,1777.54 2181.5,1130.5 Z"/></g>
<g><path style="opacity:1" fill="#fefefe" d="M 3333.5,1130.5 C 3785.17,1130.5 4236.83,1130.5 4688.5,1130.5C 4688.5,1281.17 4688.5,1431.83 4688.5,1582.5C 4550.5,1582.5 4412.5,1582.5 4274.5,1582.5C 4273.5,2309.33 4273.17,3036.33 4273.5,3763.5C 4226.5,3763.5 4179.5,3763.5 4132.5,3763.5C 4004.21,3657.04 3876.04,3550.38 3748,3443.5C 3747.5,2823.17 3747.33,2202.83 3747.5,1582.5C 3609.67,1581.5 3471.67,1581.17 3333.5,1581.5C 3333.5,1431.17 3333.5,1280.83 3333.5,1130.5 Z"/></g>
<g><path style="opacity:1" fill="#afafaf" d="M 3333.5,1130.5 C 3333.5,1280.83 3333.5,1431.17 3333.5,1581.5C 3471.67,1581.17 3609.67,1581.5 3747.5,1582.5C 3609.17,1582.5 3470.83,1582.5 3332.5,1582.5C 3332.17,1431.67 3332.5,1281 3333.5,1130.5 Z"/></g>
<g><path style="opacity:1" fill="#c0c0c0" d="M 4274.5,1582.5 C 4274.5,2309.83 4274.5,3037.17 4274.5,3764.5C 4227,3764.83 4179.66,3764.5 4132.5,3763.5C 4179.5,3763.5 4226.5,3763.5 4273.5,3763.5C 4273.17,3036.33 4273.5,2309.33 4274.5,1582.5 Z"/></g>
<g><path style="opacity:1" fill="#000000" d="M 2541.5,1584.5 C 2592.58,1819.3 2642.91,2054.3 2692.5,2289.5C 2592.17,2289.67 2491.83,2289.5 2391.5,2289C 2441.81,2054.27 2491.81,1819.43 2541.5,1584.5 Z"/></g>
<g><path style="opacity:1" fill="#f9de3b" d="M 2540.5,2632.5 C 2541.55,2632.35 2542.55,2632.52 2543.5,2633C 2995.24,3009.29 3447.07,3385.45 3899,3761.5C 3899.65,3763.24 3899.48,3764.9 3898.5,3766.5C 2994.17,3767.5 2089.83,3767.83 1185.5,3767.5C 1185.48,3765.94 1185.15,3764.44 1184.5,3763C 1186.48,3761.02 1188.48,3759.02 1190.5,3757C 1640.76,3382.39 2090.76,3007.55 2540.5,2632.5 Z"/></g>
<g><path style="opacity:1" fill="#fdfdfd" d="M 4661.5,4175.5 C 4746.16,4170.31 4816.33,4199.31 4872,4262.5C 4919.77,4323.61 4935.44,4392.28 4919,4468.5C 4899.27,4544.56 4853.77,4599.06 4782.5,4632C 4689.23,4668.77 4603.23,4656.44 4524.5,4595C 4463.67,4540.22 4435.83,4471.72 4441,4389.5C 4452.04,4306.21 4494.2,4244.38 4567.5,4204C 4597.19,4188.71 4628.53,4179.21 4661.5,4175.5 Z"/></g>
<g><path style="opacity:1" fill="#000000" d="M 4663.5,4216.5 C 4731.95,4211.5 4788.79,4234.5 4834,4285.5C 4875.4,4340.43 4887.73,4401.43 4871,4468.5C 4851.07,4538.09 4806.57,4583.59 4737.5,4605C 4671.35,4621.87 4611.69,4609.21 4558.5,4567C 4508.94,4520.37 4486.44,4462.87 4491,4394.5C 4499.42,4319.76 4537.26,4265.93 4604.5,4233C 4623.56,4224.9 4643.23,4219.4 4663.5,4216.5 Z"/></g>
<g><path style="opacity:1" fill="#fdfdfd" d="M 4800.5,4549.5 C 4785.34,4550.5 4770.01,4550.83 4754.5,4550.5C 4730.77,4511.4 4707.27,4472.06 4684,4432.5C 4667.91,4431.51 4651.74,4431.18 4635.5,4431.5C 4634.5,4471 4634.17,4510.66 4634.5,4550.5C 4620.83,4550.5 4607.17,4550.5 4593.5,4550.5C 4593.5,4459.17 4593.5,4367.83 4593.5,4276.5C 4632.17,4276.33 4670.83,4276.5 4709.5,4277C 4779.4,4281.96 4805.9,4318.46 4789,4386.5C 4779.66,4406.78 4764.16,4419.94 4742.5,4426C 4736.55,4427.49 4730.55,4428.66 4724.5,4429.5C 4725.77,4433.38 4727.61,4437.05 4730,4440.5C 4753.72,4476.72 4777.22,4513.05 4800.5,4549.5 Z"/></g>
<g><path style="opacity:1" fill="#000000" d="M 4635.5,4312.5 C 4658.17,4312.33 4680.84,4312.5 4703.5,4313C 4745.88,4316.91 4759.38,4338.75 4744,4378.5C 4740.08,4383.41 4735.25,4387.25 4729.5,4390C 4722.99,4392.1 4716.32,4393.44 4709.5,4394C 4684.85,4395.22 4660.18,4395.72 4635.5,4395.5C 4635.5,4367.83 4635.5,4340.17 4635.5,4312.5 Z"/></g>
<g><path style="opacity:1" fill="#9b9b9b" d="M 4635.5,4431.5 C 4635.5,4471.5 4635.5,4511.5 4635.5,4551.5C 4621.32,4551.83 4607.32,4551.5 4593.5,4550.5C 4607.17,4550.5 4620.83,4550.5 4634.5,4550.5C 4634.17,4510.66 4634.5,4471 4635.5,4431.5 Z"/></g>
<g><path style="opacity:1" fill="#bfbfbf" d="M 4800.5,4549.5 C 4801.04,4549.56 4801.38,4549.89 4801.5,4550.5C 4785.67,4551.83 4770.01,4551.83 4754.5,4550.5C 4770.01,4550.83 4785.34,4550.5 4800.5,4549.5 Z"/></g>
</svg>
