<?xml version="1.0" encoding="UTF-8"?>
<svg version="1.1" xmlns="http://www.w3.org/2000/svg" width="512" height="512">
<path d="M0 0 C0.74459473 0.00563965 1.48918945 0.0112793 2.25634766 0.01708984 C15.88848028 0.31672976 26.9898687 6.12379737 36.43237305 15.81445312 C39.80014894 19.65134021 42.27249743 23.80345285 44.75 28.25 C45.29221191 29.19456055 45.83442383 30.13912109 46.39306641 31.11230469 C47.55112017 33.13189773 48.7031717 35.15494277 49.84960938 37.18115234 C51.6379324 40.33530954 53.44797308 43.47594435 55.265625 46.61328125 C58.4263586 52.06914129 61.57410807 57.53233772 64.71777344 62.99804688 C67.84864924 68.43900565 70.98716542 73.87555248 74.125 79.3125 C75.37503758 81.47914498 76.62503756 83.64581166 77.875 85.8125 C78.49375 86.885 79.1125 87.9575 79.75 89.0625 C145.375 202.8125 145.375 202.8125 147.25024414 206.06298828 C148.49935518 208.22807071 149.74854129 210.39310982 150.99780273 212.55810547 C154.13702309 217.99865706 157.27490563 223.43997216 160.41015625 228.8828125 C166.43247329 239.33456199 172.47169337 249.77549548 178.5625 260.1875 C183.98421178 269.45749777 189.32704915 278.77081752 194.64422607 288.10095215 C199.84545129 297.2253284 205.10527878 306.31382774 210.40844727 315.37939453 C215.27986779 323.70970985 220.11401314 332.06107448 224.92529297 340.42626953 C227.84170692 345.49594503 230.76480808 350.56108771 233.72386169 355.60598755 C234.7575664 357.36906781 235.78847961 359.13375135 236.81860352 360.89892578 C238.10790464 363.10622446 239.40232332 365.31054536 240.70288086 367.51123047 C249.26826838 382.21391049 253.10077374 395.82997311 249.9765625 412.84375 C246.18079584 425.17188103 238.80087449 435.46953477 227.6640625 442.06640625 C219.5606095 446.30183823 212.24756227 448.55962094 203.08640003 448.56976891 C202.36857034 448.57327498 201.65074064 448.57678105 200.91115853 448.58039337 C198.51725724 448.58966196 196.12360166 448.5847959 193.72969055 448.57992554 C191.99138336 448.58366409 190.25307784 448.58826643 188.51477498 448.59365618 C183.74646427 448.60587628 178.97822377 448.60562688 174.20990098 448.60326743 C169.06385795 448.60285901 163.91783736 448.61390083 158.77180481 448.62338257 C148.69262654 448.63998832 138.61347167 448.64549193 128.53428087 448.64660732 C120.33997585 448.64755804 112.14567854 448.6516695 103.95137596 448.65800858 C80.71205387 448.67562014 57.47275024 448.68484763 34.23342142 448.68334763 C32.35456117 448.68322776 32.35456117 448.68322776 30.43774414 448.68310547 C29.18363875 448.68302371 27.92953337 448.68294195 26.63742479 448.68285771 C6.3159247 448.68204492 -14.00550125 448.70118096 -34.3269799 448.7293822 C-55.19976028 448.75811962 -76.07250451 448.77192201 -96.94530517 448.77019465 C-108.66101927 448.76953103 -120.37665565 448.7750112 -132.09235191 448.79655075 C-142.06801563 448.81477384 -152.0435664 448.81910059 -162.01923957 448.8055319 C-167.10642914 448.79900789 -172.1934021 448.79886468 -177.28057098 448.8162384 C-181.94351335 448.83199914 -186.6060679 448.82907484 -191.26900098 448.81167014 C-192.95000666 448.80860685 -194.63104149 448.81220718 -196.31201275 448.82339029 C-212.02772004 448.92096432 -225.61485061 446.12374598 -237.625 435.28125 C-246.92636626 425.55709436 -251.72830264 413.47972657 -251.75 400.125 C-251.77449219 399.35091797 -251.79898438 398.57683594 -251.82421875 397.77929688 C-251.88217309 385.98558916 -246.53429019 376.09044085 -240.75 366.125 C-239.81305298 364.48229126 -239.81305298 364.48229126 -238.85717773 362.80639648 C-237.04267158 359.63409978 -235.21304773 356.47120358 -233.375 353.3125 C-232.91786621 352.52681641 -232.46073242 351.74113281 -231.98974609 350.93164062 C-230.02202733 347.56109095 -228.03800425 344.20051032 -226.046875 340.84375 C-222.71498092 335.21382145 -219.45352327 329.5433083 -216.1875 323.875 C-215.23049194 322.21416382 -215.23049194 322.21416382 -214.25415039 320.51977539 C-212.94610523 318.24912932 -211.63824552 315.97837642 -210.33056641 313.70751953 C-207.18167946 308.2408002 -204.02816736 302.77675113 -200.875 297.3125 C-199.6249765 295.14584689 -198.37497653 292.97918021 -197.125 290.8125 C-189.625 277.8125 -182.125 264.8125 -174.625 251.8125 C-174.00616943 250.73983887 -173.38733887 249.66717773 -172.74975586 248.56201172 C-171.50064482 246.39692929 -170.25145871 244.23189018 -169.00219727 242.06689453 C-165.86297691 236.62634294 -162.72509437 231.18502784 -159.58984375 225.7421875 C-153.56752671 215.29043801 -147.52830663 204.84950452 -141.4375 194.4375 C-136.36224877 185.75987759 -131.35241233 177.04644432 -126.375 168.3125 C-120.8349827 158.59134383 -115.24125191 148.90355342 -109.59155273 139.24560547 C-103.43733258 128.72165375 -97.35130004 118.15869863 -91.26611328 107.59472656 C-88.13819852 102.16590058 -85.00641552 96.73930719 -81.875 91.3125 C-80.62498121 89.14584417 -79.37498122 86.9791775 -78.125 84.8125 C-74.375 78.3125 -74.375 78.3125 -70.625 71.8125 C-70.00560547 70.73871094 -69.38621094 69.66492188 -68.74804688 68.55859375 C-67.5051591 66.40460055 -66.26167507 64.25095128 -65.01757812 62.09765625 C-62.11993776 57.0807553 -59.22787118 52.06092786 -56.35803223 47.02807617 C-55.35021977 45.26134176 -54.3404422 43.49574498 -53.33007812 41.73046875 C-52.06967279 39.52696291 -50.81288302 37.32138309 -49.56054688 35.11328125 C-40.31503491 18.97753858 -31.07403464 6.58967811 -12.5625 1.203125 C-8.35316381 0.19615659 -4.31663623 -0.03454888 0 0 Z " fill="#FBD200" transform="translate(256.375,31.6875)"/>
<path d="M0 0 C0.74459473 0.00563965 1.48918945 0.0112793 2.25634766 0.01708984 C15.88848028 0.31672976 26.9898687 6.12379737 36.43237305 15.81445312 C39.80014894 19.65134021 42.27249743 23.80345285 44.75 28.25 C45.29221191 29.19456055 45.83442383 30.13912109 46.39306641 31.11230469 C47.55112017 33.13189773 48.7031717 35.15494277 49.84960938 37.18115234 C51.6379324 40.33530954 53.44797308 43.47594435 55.265625 46.61328125 C58.4263586 52.06914129 61.57410807 57.53233772 64.71777344 62.99804688 C67.84864924 68.43900565 70.98716542 73.87555248 74.125 79.3125 C75.37503758 81.47914498 76.62503756 83.64581166 77.875 85.8125 C78.49375 86.885 79.1125 87.9575 79.75 89.0625 C145.375 202.8125 145.375 202.8125 147.25024414 206.06298828 C148.49935518 208.22807071 149.74854129 210.39310982 150.99780273 212.55810547 C154.13702309 217.99865706 157.27490563 223.43997216 160.41015625 228.8828125 C166.43247329 239.33456199 172.47169337 249.77549548 178.5625 260.1875 C183.98421178 269.45749777 189.32704915 278.77081752 194.64422607 288.10095215 C199.84545129 297.2253284 205.10527878 306.31382774 210.40844727 315.37939453 C215.27986779 323.70970985 220.11401314 332.06107448 224.92529297 340.42626953 C227.84170692 345.49594503 230.76480808 350.56108771 233.72386169 355.60598755 C234.7575664 357.36906781 235.78847961 359.13375135 236.81860352 360.89892578 C238.10790464 363.10622446 239.40232332 365.31054536 240.70288086 367.51123047 C249.26826838 382.21391049 253.10077374 395.82997311 249.9765625 412.84375 C246.18079584 425.17188103 238.80087449 435.46953477 227.6640625 442.06640625 C219.5606095 446.30183823 212.24756227 448.55962094 203.08640003 448.56976891 C202.36857034 448.57327498 201.65074064 448.57678105 200.91115853 448.58039337 C198.51725724 448.58966196 196.12360166 448.5847959 193.72969055 448.57992554 C191.99138336 448.58366409 190.25307784 448.58826643 188.51477498 448.59365618 C183.74646427 448.60587628 178.97822377 448.60562688 174.20990098 448.60326743 C169.06385795 448.60285901 163.91783736 448.61390083 158.77180481 448.62338257 C148.69262654 448.63998832 138.61347167 448.64549193 128.53428087 448.64660732 C120.33997585 448.64755804 112.14567854 448.6516695 103.95137596 448.65800858 C80.71205387 448.67562014 57.47275024 448.68484763 34.23342142 448.68334763 C32.35456117 448.68322776 32.35456117 448.68322776 30.43774414 448.68310547 C29.18363875 448.68302371 27.92953337 448.68294195 26.63742479 448.68285771 C6.3159247 448.68204492 -14.00550125 448.70118096 -34.3269799 448.7293822 C-55.19976028 448.75811962 -76.07250451 448.77192201 -96.94530517 448.77019465 C-108.66101927 448.76953103 -120.37665565 448.7750112 -132.09235191 448.79655075 C-142.06801563 448.81477384 -152.0435664 448.81910059 -162.01923957 448.8055319 C-167.10642914 448.79900789 -172.1934021 448.79886468 -177.28057098 448.8162384 C-181.94351335 448.83199914 -186.6060679 448.82907484 -191.26900098 448.81167014 C-192.95000666 448.80860685 -194.63104149 448.81220718 -196.31201275 448.82339029 C-212.02772004 448.92096432 -225.61485061 446.12374598 -237.625 435.28125 C-246.92636626 425.55709436 -251.72830264 413.47972657 -251.75 400.125 C-251.77449219 399.35091797 -251.79898438 398.57683594 -251.82421875 397.77929688 C-251.88217309 385.98558916 -246.53429019 376.09044085 -240.75 366.125 C-239.81305298 364.48229126 -239.81305298 364.48229126 -238.85717773 362.80639648 C-237.04267158 359.63409978 -235.21304773 356.47120358 -233.375 353.3125 C-232.91786621 352.52681641 -232.46073242 351.74113281 -231.98974609 350.93164062 C-230.02202733 347.56109095 -228.03800425 344.20051032 -226.046875 340.84375 C-222.71498092 335.21382145 -219.45352327 329.5433083 -216.1875 323.875 C-215.23049194 322.21416382 -215.23049194 322.21416382 -214.25415039 320.51977539 C-212.94610523 318.24912932 -211.63824552 315.97837642 -210.33056641 313.70751953 C-207.18167946 308.2408002 -204.02816736 302.77675113 -200.875 297.3125 C-199.6249765 295.14584689 -198.37497653 292.97918021 -197.125 290.8125 C-189.625 277.8125 -182.125 264.8125 -174.625 251.8125 C-174.00616943 250.73983887 -173.38733887 249.66717773 -172.74975586 248.56201172 C-171.50064482 246.39692929 -170.25145871 244.23189018 -169.00219727 242.06689453 C-165.86297691 236.62634294 -162.72509437 231.18502784 -159.58984375 225.7421875 C-153.56752671 215.29043801 -147.52830663 204.84950452 -141.4375 194.4375 C-136.36224877 185.75987759 -131.35241233 177.04644432 -126.375 168.3125 C-120.8349827 158.59134383 -115.24125191 148.90355342 -109.59155273 139.24560547 C-103.43733258 128.72165375 -97.35130004 118.15869863 -91.26611328 107.59472656 C-88.13819852 102.16590058 -85.00641552 96.73930719 -81.875 91.3125 C-80.62498121 89.14584417 -79.37498122 86.9791775 -78.125 84.8125 C-74.375 78.3125 -74.375 78.3125 -70.625 71.8125 C-70.00560547 70.73871094 -69.38621094 69.66492188 -68.74804688 68.55859375 C-67.5051591 66.40460055 -66.26167507 64.25095128 -65.01757812 62.09765625 C-62.11993776 57.0807553 -59.22787118 52.06092786 -56.35803223 47.02807617 C-55.35021977 45.26134176 -54.3404422 43.49574498 -53.33007812 41.73046875 C-52.06967279 39.52696291 -50.81288302 37.32138309 -49.56054688 35.11328125 C-40.31503491 18.97753858 -31.07403464 6.58967811 -12.5625 1.203125 C-8.35316381 0.19615659 -4.31663623 -0.03454888 0 0 Z M-25.57177734 28.91210938 C-28.97722932 33.44533491 -31.67939791 38.36856514 -34.4375 43.3125 C-35.42536589 45.05428941 -36.41324914 46.79606942 -37.4024353 48.53710938 C-38.41014116 50.31247342 -39.41430467 52.08981179 -40.41845703 53.8671875 C-43.35764752 59.0428621 -46.36508798 64.1777426 -49.375 69.3125 C-56.12379361 80.85874352 -62.80840135 92.44153447 -69.48388672 104.03027344 C-72.61180148 109.45909942 -75.74358448 114.88569281 -78.875 120.3125 C-80.12501879 122.47915583 -81.37501878 124.6458225 -82.625 126.8125 C-110.125 174.47916667 -137.625 222.14583333 -165.125 269.8125 C-165.74383057 270.88516113 -166.36266113 271.95782227 -167.00024414 273.06298828 C-168.24935518 275.22807071 -169.49854129 277.39310982 -170.74780273 279.55810547 C-173.88702309 284.99865706 -177.02490563 290.43997216 -180.16015625 295.8828125 C-186.18247396 306.33456316 -192.22185089 316.77540267 -198.3125 327.1875 C-205.4518932 339.39820532 -212.46433947 351.6799851 -219.46630859 363.96972656 C-221.31068552 367.19986329 -223.1633361 370.42508031 -225.01953125 373.6484375 C-225.57817871 374.62014893 -226.13682617 375.59186035 -226.71240234 376.59301758 C-227.7509956 378.39874997 -228.79157044 380.20334461 -229.83447266 382.0065918 C-230.28999512 382.79976807 -230.74551758 383.59294434 -231.21484375 384.41015625 C-231.61050537 385.09601807 -232.00616699 385.78187988 -232.41381836 386.48852539 C-236.02937039 393.34953357 -235.65951356 404.14553801 -233.3984375 411.48046875 C-232.20321275 413.90391524 -230.91361646 416.09402976 -229.375 418.3125 C-228.7975 419.22 -228.22 420.1275 -227.625 421.0625 C-220.27180278 428.41569722 -212.40742611 431.55817519 -201.99512672 431.56976891 C-201.28231761 431.57327498 -200.56950849 431.57678105 -199.8350991 431.58039337 C-197.45229415 431.58967952 -195.0697351 431.58479133 -192.68692017 431.57992554 C-190.95899964 431.58366319 -189.23108081 431.58826517 -187.50316465 431.59365618 C-182.75907678 431.60588713 -178.01505942 431.60562561 -173.27095938 431.60326743 C-168.15292366 431.6028593 -163.03491056 431.61389803 -157.91688538 431.62338257 C-147.89171825 431.63999352 -137.86657465 431.64549214 -127.84139492 431.64660732 C-119.69327492 431.64755765 -111.54516268 431.65166717 -103.39704514 431.65800858 C-80.2975648 431.6756204 -57.19810305 431.68484741 -34.09861596 431.68334763 C-32.85338715 431.68326772 -31.60815833 431.6831878 -30.32519531 431.68310547 C-29.07844703 431.68302371 -27.83169874 431.68294195 -26.54717021 431.68285771 C-6.33606834 431.68204458 13.87495903 431.70118911 34.08603935 431.7293822 C54.83672745 431.75809976 75.5873792 431.77192315 96.33808768 431.77019465 C107.98885533 431.76953041 119.63954488 431.77503771 131.29029465 431.79655075 C141.20863862 431.81474756 151.12686908 431.81912211 161.04522251 431.8055319 C166.10558147 431.79899502 171.16572254 431.7989112 176.22606087 431.8162384 C180.8598451 431.83194191 185.49323816 431.82913331 190.12701268 431.81167014 C191.80192058 431.80859428 193.47685748 431.81225469 195.15173118 431.82339029 C207.40292227 431.90151964 207.40292227 431.90151964 218.625 427.3125 C219.59928076 426.74497955 219.59928076 426.74497955 220.59324396 426.16599405 C227.02566434 422.27122145 231.35137564 415.37806809 233.625 408.3125 C235.34810991 395.13494635 232.28791625 386.48953613 225.625 375.3125 C224.58239117 373.50519907 223.54217141 371.69651854 222.50390625 369.88671875 C220.15735043 365.81752128 217.78670347 361.7636021 215.3984375 357.71875 C211.61903093 351.31589843 207.89712741 344.88097102 204.1875 338.4375 C202.92838746 336.25260299 201.66927287 334.06770716 200.41015625 331.8828125 C199.78512207 330.79774414 199.16008789 329.71267578 198.51611328 328.59472656 C195.38819852 323.16590058 192.25641552 317.73930719 189.125 312.3125 C187.87498121 310.14584417 186.62498122 307.9791775 185.375 305.8125 C184.75625 304.74 184.1375 303.6675 183.5 302.5625 C147.875 240.81249999 147.875 240.81249999 145.99975586 237.56201172 C144.75064482 235.39692929 143.50145871 233.23189018 142.25219727 231.06689453 C139.11297691 225.62634294 135.97509437 220.18502784 132.83984375 214.7421875 C126.81752671 204.29043801 120.77830663 193.84950452 114.6875 183.4375 C109.26578822 174.16750223 103.92295085 164.85418248 98.60577393 155.52404785 C93.40454871 146.3996716 88.14472122 137.31117226 82.84155273 128.24560547 C76.68733258 117.72165375 70.60130004 107.15869863 64.51611328 96.59472656 C60.76930021 90.09173729 57.0178437 83.59142422 53.265625 77.09155273 C50.0476344 71.51614789 46.83431989 65.93811351 43.62890625 60.35546875 C40.49884623 54.90604772 37.35525752 49.46468852 34.19921875 44.03027344 C32.8524271 41.70513625 31.51865513 39.37315839 30.1875 37.0390625 C24.995443 28.17605895 19.44969976 21.4735695 9.51953125 17.98046875 C-4.42649608 14.76215475 -16.35026622 17.96172175 -25.57177734 28.91210938 Z " fill="#FCD300" transform="translate(256.375,31.6875)"/>
<path d="M0 0 C7.47311079 5.42994481 11.76763307 11.84547777 16.125 19.875 C17.09679388 21.61182311 18.06861489 23.34863172 19.04205322 25.08453369 C20.04261329 26.87353632 21.03593981 28.66641041 22.02832031 30.45996094 C25.11129409 36.01584337 28.31253819 41.50365555 31.5 47 C32.75053604 49.16635732 34.00053482 51.33302487 35.25 53.5 C35.86875 54.5725 36.4875 55.645 37.125 56.75 C132.75 222.5 132.75 222.5 134.62524414 225.75048828 C135.87435518 227.91557071 137.12354129 230.08060982 138.37280273 232.24560547 C141.51202309 237.68615706 144.64990563 243.12747216 147.78515625 248.5703125 C153.80747329 259.02206199 159.84669337 269.46299548 165.9375 279.875 C171.35859532 289.14394376 176.70178873 298.45569272 182.01721191 307.78543091 C186.69234349 315.9896824 191.41457589 324.16463249 196.1875 332.3125 C200.949257 340.44912756 205.66058471 348.61252464 210.3125 356.8125 C210.87026123 357.7919458 211.42802246 358.7713916 212.00268555 359.78051758 C212.51355713 360.68439209 213.02442871 361.5882666 213.55078125 362.51953125 C214.00106689 363.31464111 214.45135254 364.10975098 214.9152832 364.92895508 C218.58557023 371.93661767 218.31756693 382.61539966 216.05859375 390.1328125 C214.86252215 392.58494675 213.56974334 394.77113791 212 397 C211.61585938 397.58007812 211.23171875 398.16015625 210.8359375 398.7578125 C206.42791908 404.72512995 199.98041386 408.00482385 193 410 C189.57852477 410.251849 189.57852477 410.251849 185.74317455 410.25447559 C185.03151928 410.25768207 184.31986401 410.26088855 183.58664343 410.26419219 C181.20173822 410.27249422 178.81708401 410.26656724 176.43217468 410.26069641 C174.70511755 410.26371701 172.97806176 410.26760603 171.25100833 410.27228898 C166.50465751 410.28258966 161.75838206 410.28038188 157.012025 410.27610838 C151.89329276 410.2736449 146.77457884 410.28265066 141.65585327 410.29014587 C131.6272039 410.30290571 121.59858128 410.30468494 111.56992515 410.30234561 C103.41892119 410.30056362 95.26792537 410.30230955 87.11692238 410.30657005 C85.95745746 410.30716524 84.79799255 410.30776043 83.60339234 410.30837366 C81.24803012 410.30958539 78.8926679 410.31079953 76.53730569 410.31201603 C54.44016434 410.32289666 32.34303824 410.32072669 10.24589602 410.31463119 C-9.97172317 410.30946238 -30.18929418 410.3207156 -50.40690384 410.33972941 C-71.16207958 410.35909924 -91.91723251 410.36736525 -112.67241734 410.36360615 C-124.32653748 410.36169271 -135.98061661 410.36419559 -147.63472939 410.37832069 C-157.55674448 410.39022461 -167.47869332 410.39165053 -177.40070931 410.37953053 C-182.46305016 410.37363472 -187.52526978 410.37256181 -192.58760262 410.38453293 C-197.22322133 410.39536756 -201.85861722 410.39231716 -206.49422541 410.37827124 C-208.16983429 410.37561763 -209.84546049 410.37801167 -211.5210524 410.38600711 C-223.5104279 410.43923888 -233.93500413 409.83598545 -243 401 C-250.15544314 392.00413246 -252.30804198 383.59908421 -251.34960938 372.24023438 C-250.29684506 365.49430885 -246.43926778 359.76936866 -243 354 C-241.95739117 352.19269907 -240.91717141 350.38401854 -239.87890625 348.57421875 C-237.53235043 344.50502128 -235.16170347 340.4511021 -232.7734375 336.40625 C-228.99403093 330.00339843 -225.27212741 323.56847102 -221.5625 317.125 C-220.30338746 314.94010299 -219.04427287 312.75520716 -217.78515625 310.5703125 C-217.16012207 309.48524414 -216.53508789 308.40017578 -215.89111328 307.28222656 C-212.76319852 301.85340058 -209.63141552 296.42680719 -206.5 291 C-205.24998121 288.83334417 -203.99998122 286.6666775 -202.75 284.5 C-195.25 271.5 -187.75 258.5 -180.25 245.5 C-179.63116943 244.42733887 -179.01233887 243.35467773 -178.37475586 242.24951172 C-177.12564482 240.08442929 -175.87645871 237.91939018 -174.62719727 235.75439453 C-171.48797691 230.31384294 -168.35009437 224.87252784 -165.21484375 219.4296875 C-159.19252671 208.97793801 -153.15330663 198.53700452 -147.0625 188.125 C-141.98724877 179.44737759 -136.97741233 170.73394432 -132 162 C-126.4599827 152.27884383 -120.86625191 142.59105342 -115.21655273 132.93310547 C-109.06233258 122.40915375 -102.97630004 111.84619863 -96.89111328 101.28222656 C-93.76319852 95.85340058 -90.63141552 90.42680719 -87.5 85 C-86.24998121 82.83334417 -84.99998122 80.6666775 -83.75 78.5 C-80 72 -80 72 -76.25 65.5 C-75.63068604 64.42645264 -75.01137207 63.35290527 -74.37329102 62.24682617 C-73.12923208 60.09059787 -71.88493058 57.93450951 -70.64038086 55.77856445 C-67.4224322 50.20334505 -64.20922945 44.62545601 -61.00390625 39.04296875 C-57.87384623 33.59354772 -54.73025752 28.15218852 -51.57421875 22.71777344 C-50.2274271 20.39263625 -48.89365513 18.06065839 -47.5625 15.7265625 C-42.59201092 7.24178231 -37.02997622 0.39703634 -27.6796875 -3.33984375 C-18.22211213 -5.66977121 -8.43099535 -4.89257198 0 0 Z M-28.9753418 19.31567383 C-30.9174164 21.89050926 -32.54764163 24.46219913 -34.14453125 27.26171875 C-34.73113525 28.28475098 -35.31773926 29.3077832 -35.92211914 30.36181641 C-36.54594482 31.45929199 -37.16977051 32.55676758 -37.8125 33.6875 C-38.47667579 34.84840575 -39.14131665 36.00904553 -39.80639648 37.16943359 C-41.18722404 39.57951977 -42.56605121 41.99073297 -43.94335938 44.40283203 C-47.13329878 49.98635212 -50.34824664 55.55545299 -53.5625 61.125 C-54.18366699 62.20241455 -54.80483398 63.2798291 -55.44482422 64.38989258 C-59.58492675 71.56581879 -63.75436753 78.7240926 -67.9375 85.875 C-73.01275123 94.55262241 -78.02258767 103.26605568 -83 112 C-88.5400173 121.72115617 -94.13374809 131.40894658 -99.78344727 141.06689453 C-105.93766742 151.59084625 -112.02369996 162.15380137 -118.10888672 172.71777344 C-121.23680148 178.14659942 -124.36858448 183.57319281 -127.5 189 C-128.75001879 191.16665583 -130.00001878 193.3333225 -131.25 195.5 C-198.75 312.5 -198.75 312.5 -200.62646484 315.75244141 C-201.87169484 317.91090498 -203.11681272 320.06943323 -204.36181641 322.22802734 C-208.21504763 328.90837402 -212.07255882 335.58622642 -215.93334961 342.26220703 C-217.82390434 345.53650615 -219.70724512 348.81487184 -221.58984375 352.09375 C-223.67353521 355.71917585 -225.78444472 359.32398022 -227.94140625 362.90625 C-228.37018066 363.63118652 -228.79895508 364.35612305 -229.24072266 365.10302734 C-230.00114834 366.38777756 -230.77422356 367.66518808 -231.56396484 368.93212891 C-234.2621175 373.54561232 -234.40864279 376.80593509 -234 382 C-232.04614079 387.34740414 -229.08763713 390.45618143 -224 393 C-221.7701134 393.09917291 -219.53716135 393.13103651 -217.30507278 393.13422108 C-216.60557597 393.13657331 -215.90607915 393.13892554 -215.18538547 393.14134905 C-212.81784992 393.14805929 -210.45036899 393.14758022 -208.08282471 393.14717102 C-206.37770655 393.15046839 -204.67258917 393.15419368 -202.96747279 393.1583125 C-198.26332244 393.16835509 -193.55918485 393.17205291 -188.85502529 393.17470181 C-183.78877149 393.17859817 -178.72252785 393.18817694 -173.65628052 393.19691467 C-161.41226469 393.2166978 -149.16824802 393.22674754 -136.9242202 393.23564246 C-131.16298819 393.24002225 -125.4017571 393.24538985 -119.64052582 393.25063133 C-100.49699214 393.2676453 -81.35345905 393.28214052 -62.20991898 393.28938007 C-57.23955535 393.29129007 -52.26919173 393.29321039 -47.29882812 393.29516602 C-46.06341848 393.29564976 -44.82800883 393.2961335 -43.55516252 393.2966319 C-23.53248205 393.30493609 -3.50986125 393.33027884 16.51279315 393.36274669 C37.05425207 393.39578516 57.59568063 393.41382592 78.13716626 393.41702431 C89.6766945 393.41919237 101.21613572 393.42798416 112.75563812 393.45348549 C122.58122497 393.47514862 132.40670368 393.48326457 142.2323117 393.47351871 C147.24771339 393.46896128 152.26289175 393.47094375 157.27826309 393.49028015 C161.86767409 393.50782189 166.45669737 393.50698763 171.04611197 393.49138286 C172.70833297 393.48899306 174.37058019 393.49340094 176.03276095 393.50521151 C178.2895507 393.52025657 180.54495341 393.51071088 182.80170822 393.49498463 C184.05597949 393.49596144 185.31025075 393.49693824 186.60253024 393.49794465 C191.46929496 392.78465516 194.59552712 390.59819328 197.8125 386.9375 C200.31842979 382.84887772 200.66385012 378.66533442 200 374 C198.78771174 370.80037791 197.11644469 367.93876241 195.375 365 C194.88354492 364.13971191 194.39208984 363.27942383 193.88574219 362.39306641 C192.27481837 359.58475286 190.63894931 356.79203653 189 354 C187.89239831 352.09162781 186.78563532 350.18276862 185.6796875 348.2734375 C183.35230292 344.26499679 181.01375426 340.263323 178.66796875 336.265625 C174.93674029 329.90228965 171.24521942 323.51650445 167.5625 317.125 C166.94020508 316.04524902 166.31791016 314.96549805 165.67675781 313.85302734 C164.41471274 311.66285466 163.15283148 309.47258757 161.89111328 307.28222656 C158.76319852 301.85340058 155.63141552 296.42680719 152.5 291 C151.24998121 288.83334417 149.99998122 286.6666775 148.75 284.5 C148.13125 283.4275 147.5125 282.355 146.875 281.25 C111.25000001 219.50000001 111.25000001 219.50000001 109.37475586 216.24951172 C108.12564482 214.08442929 106.87645871 211.91939018 105.62719727 209.75439453 C102.48797691 204.31384294 99.35009437 198.87252784 96.21484375 193.4296875 C90.19252671 182.97793801 84.15330663 172.53700452 78.0625 162.125 C72.64078822 152.85500223 67.29795085 143.54168248 61.98077393 134.21154785 C56.77954871 125.0871716 51.51972122 115.99867226 46.21655273 106.93310547 C40.06233258 96.40915375 33.97630004 85.84619863 27.89111328 75.28222656 C26.01051894 72.01825673 24.12859454 68.75505811 22.24609375 65.4921875 C21.3178479 63.8827124 21.3178479 63.8827124 20.37084961 62.24072266 C19.12982944 60.09100301 17.88716957 57.94222907 16.64282227 55.79443359 C13.72393473 50.75136155 10.82255283 45.70057123 7.98303223 40.61242676 C6.97798253 38.8134011 5.96739349 37.01760199 4.95507812 35.22265625 C3.68745079 32.97106644 2.43026204 30.71355527 1.18554688 28.44921875 C-2.51248676 21.91258275 -6.07686472 16.46156764 -13 13 C-20.1838573 12.40134523 -24.11114037 13.61341817 -28.9753418 19.31567383 Z " fill="#1C181A" transform="translate(273,53)"/>
<path d="M0 0 C3.77564279 1.99933827 6.4741108 4.01395775 8.5 7.8125 C8.94591653 10.65521787 8.89415287 12.24433613 8.4375 15 C7.76325832 19.1485694 8.67842269 21.43472055 11 25 C12.62500419 26.98647748 13.46102213 27.8914039 16.00537109 28.40405273 C18.46302214 28.43606304 20.91713187 28.45779771 23.375 28.4375 C24.22578125 28.45748047 25.0765625 28.47746094 25.953125 28.49804688 C31.38322589 28.49381782 33.93150213 27.84897461 38 24 C43.335284 21.9167884 48.42172459 21.6612139 54 23 C54.99 23.66 55.98 24.32 57 25 C58.9896995 25.39013716 60.99019869 25.73202649 63 26 C63.25 28.8125 63.25 28.8125 63 32 C61.125 33.875 61.125 33.875 59 35 C58.34 35 57.68 35 57 35 C56.97486328 35.87011719 56.97486328 35.87011719 56.94921875 36.7578125 C56.64498847 39.50950729 56.21463043 41.49737221 55 44 C50.75755511 47.25209498 46.05033663 49.31655446 41 51 C39.67987218 54.87644471 39.20215 57.95723568 40 62 C43.46172315 66.78669906 48.37307176 70.40267316 53 74 C50.49295434 80.21311317 44.12360106 83.47473282 38.328125 86.3046875 C26.57052381 91.18587345 13.78031293 91.81683242 1.80859375 87.25390625 C-10.73489489 81.653823 -20.75612604 72.98147988 -26.1875 60.20703125 C-30.85451176 47.16208518 -30.61348333 33.42104471 -25.00390625 20.75 C-21.1400223 13.04897178 -10.26364115 -3.85639746 0 0 Z " fill="#1B181A" transform="translate(156,334)"/>
<path d="M0 0 C10.85102524 -0.13002655 21.63834026 0.22418747 32.47555542 0.74050903 C51.9577067 1.66409893 71.44486687 2.40084756 90.9375 3.0625 C92.81621292 3.12652008 92.81621292 3.12652008 94.73287964 3.1918335 C107.09937516 3.61223961 119.46590908 4.03138231 131.83447266 4.38671875 C134.15631159 4.46100735 136.47772871 4.55033136 138.79833984 4.65625 C145.29299326 4.94128754 151.68584024 4.97057973 158.18113708 4.75091553 C189.42876447 3.79137104 189.42876447 3.79137104 197.20898438 9.25244141 C202.04699175 14.74939229 204.58869276 20.89648589 206.81884766 27.79980469 C208.52643251 32.42630784 211.03660442 36.44790009 213.63354492 40.62353516 C215 43 215 43 215 45 C207.31598254 44.35895294 199.88675572 42.80332724 192.36505127 41.16235352 C188.65291871 40.35285745 184.93751237 39.55860364 181.22265625 38.76171875 C180.49528259 38.60524872 179.76790894 38.44877869 179.01849365 38.28756714 C173.72843413 37.1508232 168.43287097 36.05015435 163.125 35 C162.38113037 34.85240234 161.63726074 34.70480469 160.87084961 34.55273438 C158.2475345 34.03361793 155.62379675 33.51667677 153 33 C135.9474407 29.64184053 118.90769475 26.2554156 101.9375 22.5 C91.03632443 20.088322 80.12397618 17.74661246 69.1875 15.5 C68.48987549 15.35662201 67.79225098 15.21324402 67.07348633 15.06552124 C58.94509753 13.39744653 50.81108957 11.75892877 42.671875 10.14453125 C41.89664993 9.99051849 41.12142487 9.83650574 40.32270813 9.67782593 C36.61921578 8.94231978 32.91517764 8.20990006 29.2097168 7.484375 C19.41521766 5.55393612 9.70366137 3.34351153 0 1 C0 0.67 0 0.34 0 0 Z " fill="#1D1A1A" transform="translate(238,380)"/>
<path d="M0 0 C3.44940977 1.14980326 3.60611584 1.56047819 5.234375 4.61328125 C5.64067139 5.36125977 6.04696777 6.10923828 6.46557617 6.87988281 C6.88943604 7.68264648 7.3132959 8.48541016 7.75 9.3125 C8.63513323 10.96048798 9.52185819 12.60762201 10.41015625 14.25390625 C11.06395264 15.46844482 11.06395264 15.46844482 11.73095703 16.70751953 C12.85024321 18.72946975 14.01701499 20.6959076 15.24609375 22.65234375 C15.88675781 23.67457031 16.52742188 24.69679688 17.1875 25.75 C17.75855469 26.63171875 18.32960938 27.5134375 18.91796875 28.421875 C21.32217451 34.15030751 17.86914122 40.35515463 15.703125 45.78515625 C15.36229385 46.65313339 15.02146271 47.52111053 14.67030334 48.41539001 C13.53586092 51.30002529 12.39298101 54.18123844 11.25 57.0625 C10.44378207 59.10723564 9.63804655 61.15216155 8.83276367 63.19726562 C6.6751595 68.67159009 4.50980886 74.14281564 2.34197998 79.61309814 C1.00440971 82.98887074 -0.3317611 86.36519387 -1.66748047 89.74169922 C-6.11248439 100.97719051 -10.5633374 112.21034859 -15.01953125 123.44140625 C-19.31556658 134.26915432 -23.60022948 145.10134038 -27.875 155.9375 C-28.17201813 156.69040314 -28.46903625 157.44330627 -28.77505493 158.21902466 C-29.95489628 161.20993358 -31.13466496 164.20087113 -32.31425476 167.19187927 C-34.52015864 172.78489868 -36.72845202 178.37697174 -38.9375 183.96875 C-45.65270284 200.96840856 -52.35785306 217.97162328 -59 235 C-60.25244297 231.42587837 -59.73101628 229.12024816 -58.70703125 225.51953125 C-58.40837158 224.44614502 -58.10971191 223.37275879 -57.80200195 222.2668457 C-57.47546631 221.12691162 -57.14893066 219.98697754 -56.8125 218.8125 C-56.15415995 216.44849772 -55.49790927 214.08391258 -54.84375 211.71875 C-54.5240625 210.56632813 -54.204375 209.41390625 -53.875 208.2265625 C-52.44120371 202.93943867 -51.21580313 197.61445042 -50.01953125 192.26953125 C-48.98781696 187.80180939 -47.78249987 183.38089039 -46.59339905 178.95295715 C-44.76624535 172.14710848 -43.00523633 165.32472986 -41.25 158.5 C-40.90371293 157.15558167 -40.55735704 155.81118107 -40.2109375 154.46679688 C-39.49517975 151.68886973 -38.77971041 148.91086855 -38.06445312 146.1328125 C-36.37906602 139.58782859 -34.68925396 133.04398677 -33 126.5 C-32.33331362 123.91667175 -31.66664454 121.33333904 -31 118.75 C-30.6666679 117.45833302 -30.33333456 116.16666635 -30 114.875 C-29.835 114.235625 -29.67 113.59625 -29.5 112.9375 C-20 76.125 -20 76.125 -19.50004578 74.18769836 C-19.16654632 72.89537398 -18.83306041 71.60304609 -18.49958801 70.31071472 C-17.66890713 67.09158244 -16.83794341 63.87252359 -16.0065918 60.65356445 C-14.47480099 54.72149311 -12.94489004 48.78897479 -11.42312622 42.85432434 C-7.7502936 28.53142216 -4.05727458 14.21996717 0 0 Z " fill="#1D1A1A" transform="translate(255,84)"/>
<path d="M0 0 C3.5592537 3.33469715 5.77459626 7.27336743 8.25 11.4375 C8.72179687 12.20126953 9.19359375 12.96503906 9.6796875 13.75195312 C10.12054688 14.49251953 10.56140625 15.23308594 11.015625 15.99609375 C11.62325684 17.00434204 11.62325684 17.00434204 12.24316406 18.03295898 C13.20192508 20.52480979 13.01463222 21.54842754 12 24 C10.65576172 25.76074219 10.65576172 25.76074219 8.9296875 27.546875 C8.28821777 28.2186377 7.64674805 28.89040039 6.98583984 29.58251953 C6.2892627 30.29778809 5.59268555 31.01305664 4.875 31.75 C3.40597836 33.28359401 1.93723472 34.81745436 0.46875 36.3515625 C-0.27890625 37.12790039 -1.0265625 37.90423828 -1.796875 38.70410156 C-5.10312021 42.14957252 -8.3645411 45.63626591 -11.625 49.125 C-12.8671233 50.450581 -14.10931049 51.77610212 -15.3515625 53.1015625 C-19.48345817 57.51462917 -23.60763958 61.93487674 -27.73095703 66.35595703 C-31.9801021 70.91074446 -36.23824028 75.45701576 -40.5 80 C-47.67998576 87.65426685 -54.84226182 95.32493235 -62 103 C-69.15773877 110.67506828 -76.32019726 118.34556085 -83.5 126 C-86.0002699 128.66641373 -88.50021706 131.33312974 -91 134 C-91.6197168 134.6609668 -92.23943359 135.32193359 -92.87792969 136.00292969 C-99.99748467 143.59985661 -107.08021069 151.2198136 -114 159 C-114 155.52080594 -113.43728985 154.88298833 -111.39453125 152.18359375 C-110.82992187 151.42884766 -110.2653125 150.67410156 -109.68359375 149.89648438 C-109.06613281 149.08501953 -108.44867188 148.27355469 -107.8125 147.4375 C-106.51610077 145.70765021 -105.22054665 143.97716678 -103.92578125 142.24609375 C-103.26658691 141.36808105 -102.60739258 140.49006836 -101.92822266 139.58544922 C-99.07266149 135.75658207 -96.28473225 131.88052007 -93.5 128 C-86.16159341 117.80528726 -78.69543404 107.70595682 -71.22949219 97.60449219 C-64.40034581 88.36195339 -57.6079307 79.0961172 -50.89428711 69.76928711 C-46.38568587 63.5137479 -41.81319395 57.30681654 -37.23046875 51.10546875 C-32.74768316 45.03233794 -28.32145285 38.92027513 -23.91210938 32.79370117 C-19.24087293 26.31228931 -14.50760152 19.87764562 -9.75585938 13.45507812 C-6.46136377 8.99918572 -3.20794581 4.51865501 0 0 Z " fill="#1E1A1A" transform="translate(316,188)"/>
<path d="M0 0 C3.16034591 2.97143358 5.10048025 6.42482605 7.1875 10.1875 C7.55552734 10.84169922 7.92355469 11.49589844 8.30273438 12.16992188 C9.2062466 13.77746961 10.1037241 15.38840651 11 17 C8.72865437 19.27134563 7.45127376 19.61694887 4.3984375 20.48046875 C2.96939087 20.89039063 2.96939087 20.89039063 1.51147461 21.30859375 C0.47643799 21.59863281 -0.55859863 21.88867188 -1.625 22.1875 C-3.82425402 22.81628289 -6.02347179 23.44519262 -8.22265625 24.07421875 C-9.35074707 24.39438965 -10.47883789 24.71456055 -11.64111328 25.04443359 C-16.78771839 26.50858626 -21.92553755 28.00242476 -27.0625 29.5 C-28.5465332 29.93143311 -28.5465332 29.93143311 -30.06054688 30.37158203 C-36.93394308 32.37650917 -43.78197047 34.45659564 -50.625 36.5625 C-58.93320639 39.11496171 -67.27695356 41.47686279 -75.66943359 43.73510742 C-82.38356229 45.54633578 -89.0731489 47.4308163 -95.75 49.375 C-96.72727051 49.65923828 -97.70454102 49.94347656 -98.71142578 50.23632812 C-104.22357598 51.85296265 -109.7134137 53.52884631 -115.19140625 55.2578125 C-116.37959961 55.63115723 -117.56779297 56.00450195 -118.79199219 56.38916016 C-121.10118071 57.1177876 -123.40793544 57.85418345 -125.71191406 58.59912109 C-126.75186523 58.92734863 -127.79181641 59.25557617 -128.86328125 59.59375 C-129.78407471 59.88958984 -130.70486816 60.18542969 -131.65356445 60.49023438 C-134 61 -134 61 -137 60 C-136.31639404 59.70569092 -135.63278809 59.41138184 -134.9284668 59.1081543 C-118.64534116 52.09078498 -102.40164386 44.98781997 -86.1875 37.8125 C-71.54994231 31.33522761 -56.90690956 24.87088283 -42.25 18.4375 C-41.39353882 18.06156708 -40.53707764 17.68563416 -39.65466309 17.29830933 C-26.44901705 11.50320631 -13.23353846 5.73117335 0 0 Z " fill="#1E1A1A" transform="translate(368,278)"/>
<path d="M0 0 C4.53489335 1.47077622 6.11004087 5.05296427 8.25 9 C8.61351562 9.64195312 8.97703125 10.28390625 9.3515625 10.9453125 C12 15.70453477 12 15.70453477 12 18 C10.61894226 19.14631653 10.61894226 19.14631653 8.64331055 20.42895508 C7.89953659 20.91692062 7.15576263 21.40488617 6.38945007 21.90763855 C5.56354874 22.43956314 4.7376474 22.97148773 3.88671875 23.51953125 C3.02693924 24.08154739 2.16715973 24.64356354 1.28132629 25.22261047 C-0.59278204 26.44698509 -2.46887882 27.66832004 -4.34667969 28.88702393 C-9.39336957 32.1634465 -14.42451664 35.46358142 -19.45703125 38.76171875 C-20.49679108 39.44242432 -21.5365509 40.12312988 -22.6078186 40.82446289 C-33.30029588 47.83335051 -43.90903844 54.96394505 -54.5 62.125 C-55.39108459 62.72715332 -56.28216919 63.32930664 -57.20025635 63.94970703 C-63.13660561 67.96189956 -69.06904338 71.97984163 -75 76 C-76.53042424 77.03696426 -78.0608601 78.07391137 -79.59130859 79.11083984 C-87.39835026 84.40113425 -95.20180913 89.69666549 -103 95 C-103.66 94.67 -104.32 94.34 -105 94 C-89.8740973 79.79287772 -89.8740973 79.79287772 -83.88671875 74.63671875 C-81.56341213 72.62126228 -79.28251535 70.56151538 -77 68.5 C-74.01937279 65.81016569 -71.02754767 63.13689636 -68 60.5 C-63.28298716 56.38918961 -58.64361111 52.19332155 -54 48 C-48.72014424 43.23213025 -43.42708194 38.48487782 -38.0625 33.8125 C-35.69035571 31.72788836 -33.34443935 29.61571356 -31 27.5 C-27.38323655 24.23609152 -23.73610392 21.01209051 -20.0625 17.8125 C-16.83940606 14.98008411 -13.66191281 12.09736094 -10.4765625 9.22265625 C-7.0136219 6.11474899 -3.51265696 3.05149808 0 0 Z " fill="#1F1B1A" transform="translate(340,232)"/>
<path d="M0 0 C1.6953125 1.7578125 1.6953125 1.7578125 3.125 4.125 C3.62515625 4.94355469 4.1253125 5.76210938 4.640625 6.60546875 C9 14.28448276 9 14.28448276 9 17 C-8.75784745 17.29992782 -26.48624362 16.44319036 -44.22479248 15.72872162 C-52.15608359 15.41081616 -60.08782637 15.10424928 -68.01953125 14.796875 C-68.90360783 14.76250713 -69.7876844 14.72813927 -70.69855118 14.69272995 C-82.94755019 14.21747065 -95.19714692 13.77875984 -107.44921875 13.390625 C-108.16476236 13.36792416 -108.88030598 13.34522331 -109.61753273 13.32183456 C-116.95940855 13.08967796 -124.3015105 12.86572599 -131.64379883 12.64697266 C-143.11438545 12.29936011 -154.55905444 11.92227053 -166 11 C-166 10.67 -166 10.34 -166 10 C-129.18632999 7.43604699 -92.3586962 5.1439543 -55.52096176 2.95557404 C-52.05696904 2.74967123 -48.59301107 2.54319165 -45.12905884 2.33660889 C-39.61433969 2.00794229 -34.09951687 1.68107312 -28.58460236 1.35570145 C-26.52505099 1.23404124 -24.46552596 1.11193437 -22.40602875 0.98936081 C-19.56642309 0.82056364 -16.72671225 0.6536644 -13.88696289 0.48730469 C-12.6385057 0.41256204 -12.6385057 0.41256204 -11.36482716 0.33630943 C-2.55749336 -0.17501253 -2.55749336 -0.17501253 0 0 Z " fill="#1E1A1A" transform="translate(405,341)"/>
<path d="M0 0 C0.66 0 1.32 0 2 0 C3.56464388 2.55078916 5.1010896 5.11253963 6.625 7.6875 C7.29402344 8.7693457 7.29402344 8.7693457 7.9765625 9.87304688 C8.3890625 10.57880859 8.8015625 11.28457031 9.2265625 12.01171875 C9.80784912 12.97791138 9.80784912 12.97791138 10.40087891 13.96362305 C11.26775817 16.9100941 10.37715777 18.30803557 9 21 C8.03833779 22.57259067 7.02833573 24.11629991 5.98046875 25.6328125 C5.07530518 26.95091919 5.07530518 26.95091919 4.15185547 28.2956543 C3.17949951 29.69618042 3.17949951 29.69618042 2.1875 31.125 C1.51605957 32.10057861 0.84461914 33.07615723 0.15283203 34.08129883 C-1.23008899 36.09046361 -2.61486213 38.0983548 -4.00146484 40.10498047 C-6.89017078 44.28947534 -9.75709097 48.48873988 -12.625 52.6875 C-13.69249821 54.24753964 -14.76020603 55.80743586 -15.828125 57.3671875 C-16.61413086 58.51525879 -16.61413086 58.51525879 -17.41601562 59.68652344 C-19 62 -19 62 -20.58398438 64.31347656 C-27.53151951 74.46132154 -34.46867621 84.61614155 -41.39379883 94.77929688 C-44.46769344 99.28953498 -47.54444893 103.79775862 -50.62890625 108.30078125 C-51.20769531 109.14576172 -51.78648437 109.99074219 -52.3828125 110.86132812 C-53.45912363 112.43199146 -54.53590358 114.00233368 -55.61328125 115.57226562 C-59.11823765 120.6867349 -62.57178644 125.83379363 -66 131 C-66.33 130.34 -66.66 129.68 -67 129 C-66.23413086 127.09008789 -66.23413086 127.09008789 -64.96484375 124.72265625 C-64.49256348 123.83094727 -64.0202832 122.93923828 -63.53369141 122.02050781 C-63.00694824 121.04436523 -62.48020508 120.06822266 -61.9375 119.0625 C-60.81843454 116.95473273 -59.69996876 114.84664699 -58.58203125 112.73828125 C-57.99244629 111.63178223 -57.40286133 110.5252832 -56.79541016 109.38525391 C-53.86544719 103.86079559 -50.99687957 98.30480904 -48.125 92.75 C-46.93899516 90.46083746 -45.75279572 88.17177573 -44.56640625 85.8828125 C-43.97617676 84.74360352 -43.38594727 83.60439453 -42.77783203 82.43066406 C-41.02846362 79.05492595 -39.27810294 75.6797045 -37.52734375 72.3046875 C-32.74929171 63.09353022 -27.97146531 53.8822726 -23.20703125 44.6640625 C-22.89023407 44.05113846 -22.57343689 43.43821442 -22.24703979 42.80671692 C-21.93026276 42.19382309 -21.61348572 41.58092926 -21.28710938 40.94946289 C-14.22345694 27.28286033 -7.12961045 13.6323312 0 0 Z " fill="#201C1A" transform="translate(294,151)"/>
<path d="M0 0 C1.89715316 2.3375899 3.50223302 4.69079738 5.04603577 7.27549744 C5.82720764 8.56133728 5.82720764 8.56133728 6.62416077 9.87315369 C7.79603577 12.21299744 7.79603577 12.21299744 7.79603577 15.21299744 C6.77778214 15.30878082 5.7595285 15.40456421 4.7104187 15.50325012 C-4.98099277 16.41490178 -14.67239206 17.32668297 -24.36378002 18.23858452 C-29.34378667 18.70716929 -34.32379731 19.17571158 -39.30381775 19.64414978 C-44.12791233 20.09792275 -48.95199555 20.55181643 -53.77607155 21.0057869 C-55.59803695 21.17722319 -57.42000616 21.34861911 -59.2419796 21.51996994 C-60.98055973 21.68348301 -62.71913069 21.84709358 -64.45769215 22.01080513 C-66.15118111 22.17010762 -67.84471225 22.3289624 -69.53828716 22.48734856 C-73.98658613 22.90447469 -78.43334361 23.33372477 -82.87892151 23.77897644 C-83.81812345 23.87181978 -84.75732538 23.96466312 -85.72498798 24.0603199 C-87.51193995 24.23729453 -89.298599 24.41726455 -91.08487988 24.60088921 C-96.1533518 25.09955101 -101.11079177 25.29540508 -106.20396423 25.21299744 C-102.59893878 22.80964714 -99.0333688 22.0160695 -94.88389587 21.01402283 C-93.61005035 20.69894524 -93.61005035 20.69894524 -92.31047058 20.37750244 C-89.49637115 19.68293244 -86.68028656 18.99679189 -83.86412048 18.31065369 C-81.90162492 17.82797708 -79.93925996 17.3447692 -77.97702026 16.86105347 C-72.79942403 15.58619908 -67.6201166 14.31843662 -62.44041443 13.0521698 C-57.20889309 11.7720054 -51.97893758 10.48547934 -46.74888611 9.19932556 C-40.85175551 7.74949911 -34.95446602 6.3003437 -29.05603027 4.85583496 C-28.15617621 4.6350701 -27.25632215 4.41430525 -26.32919979 4.18685055 C-24.59924817 3.76397351 -22.86857965 3.34401608 -21.13713169 2.92730808 C-17.52979427 2.05535085 -13.96623957 1.14295126 -10.40486145 0.09358215 C-9.33752777 -0.2183609 -8.27019409 -0.53030396 -7.17051697 -0.85169983 C-6.28847092 -1.13110916 -5.40642487 -1.41051849 -4.49765015 -1.69839478 C-2.20396423 -1.78700256 -2.20396423 -1.78700256 0 0 Z " fill="#1F1B1A" transform="translate(388.20396423339844,311.78700256347656)"/>
<path d="M0 0 C4.3726641 0.72254548 8.41844835 2.12726247 12.56640625 3.640625 C13.3293248 3.9153212 14.09224335 4.1900174 14.87828064 4.47303772 C16.55429251 5.07660794 18.22977124 5.68166017 19.90478516 6.28799438 C24.54962702 7.96927482 29.19817859 9.64018156 33.84765625 11.30859375 C34.86215851 11.67264816 35.87666077 12.03670258 36.92190552 12.41178894 C44.92799941 15.27655581 52.95240629 18.0863772 60.98454094 20.87704086 C63.05120074 21.5950876 65.11761646 22.31383281 67.18397522 23.03274536 C73.32816151 25.16983559 79.47326431 27.3041172 85.62235355 29.42706394 C87.5721815 30.10124047 89.52108663 30.77800842 91.46961975 31.45591736 C93.87763144 32.29352434 96.2871903 33.1267002 98.69847107 33.95484924 C100.29889 34.51340858 100.29889 34.51340858 101.93164062 35.08325195 C102.86641235 35.4066304 103.80118408 35.73000885 104.76428223 36.06318665 C107 37 107 37 109 39 C64.13987306 41.79454515 64.13987306 41.79454515 44.68164062 26.95019531 C40.048131 23.58052353 35.02016664 20.93095545 30 18.1875 C28.10812184 17.12331853 26.21745728 16.05697611 24.328125 14.98828125 C20.92862238 13.07743771 17.52259752 11.17918652 14.109375 9.29296875 C13.366875 8.88087158 12.624375 8.46877441 11.859375 8.04418945 C10.5025022 7.29209873 9.14329926 6.5441886 7.78125 5.80151367 C4.80742085 4.15176579 2.22760181 2.59886878 0 0 Z " fill="#1F1B1A" transform="translate(228,391)"/>
<path d="M0 0 C0.33 0 0.66 0 1 0 C-0.19665792 21.3598574 -1.80336355 42.67529575 -3.59082031 63.99365234 C-3.7604658 66.04128326 -3.92942036 68.08897154 -4.09765625 70.13671875 C-4.17950165 71.12986084 -4.26134705 72.12300293 -4.34567261 73.14624023 C-4.95544218 80.80886189 -5.3545057 88.47156012 -5.56739807 96.15568542 C-5.74437019 101.10146251 -6.43589655 105.29822697 -8 110 C-8.33 110 -8.66 110 -9 110 C-10.49521753 94.84103933 -11.59242023 79.67402748 -12.53515625 64.47265625 C-12.68980472 61.98175222 -12.84475587 59.49086697 -13 57 C-13.0817749 55.68620361 -13.1635498 54.37240723 -13.24780273 53.01879883 C-13.73062232 45.21202672 -13.73062232 45.21202672 -14.58984375 37.44140625 C-15.89337447 22.89751853 -8.38109066 11.48980381 0 0 Z " fill="#221E19" transform="translate(185,205)"/>
<path d="M0 0 C1.051875 0.020625 2.10375 0.04125 3.1875 0.0625 C6.1875 5.8125 6.1875 5.8125 6.1875 8.0625 C11.4675 8.0625 16.7475 8.0625 22.1875 8.0625 C18.3125 15.9375 18.3125 15.9375 17.1875 17.0625 C9.72841349 17.37361935 2.51580338 16.50927343 -4.875 15.5625 C-6.60266602 15.34787109 -6.60266602 15.34787109 -8.36523438 15.12890625 C-11.18163886 14.77831648 -13.99731659 14.42274128 -16.8125 14.0625 C-14.86702145 9.04933078 -12.51121769 5.00043824 -8.8125 1.0625 C-5.72297747 -0.20499642 -3.37223628 0.05528256 0 0 Z " fill="#1E1A1A" transform="translate(356.8125,361.9375)"/>
<path d="M0 0 C2 1 2 1 2.66674805 2.82470703 C2.96125854 4.02909424 2.96125854 4.02909424 3.26171875 5.2578125 C3.49020508 6.17892822 3.71869141 7.10004395 3.95410156 8.04907227 C4.19612305 9.06412842 4.43814453 10.07918457 4.6875 11.125 C4.94370117 12.17292725 5.19990234 13.22085449 5.46386719 14.30053711 C7.98107745 24.69649464 10.32830507 35.13315492 12.6394043 45.57666016 C12.91824463 46.83140137 13.19708496 48.08614258 13.484375 49.37890625 C13.72897461 50.4882251 13.97357422 51.59754395 14.22558594 52.74047852 C14.97984756 56.09058161 14.97984756 56.09058161 16.15722656 59.66381836 C16.94073408 62.76539142 17.1604155 64.09896125 16 67 C15.72961914 66.35901367 15.45923828 65.71802734 15.18066406 65.05761719 C14.35316607 63.09673134 13.52451437 61.13633218 12.69506836 59.17626953 C11.72120711 56.86723611 10.75339097 54.5556449 9.79125977 52.24169922 C7.40877391 46.54253924 4.98833346 40.89200657 2.29251099 35.33312988 C1.39419323 33.47638659 0.51542794 31.61154221 -0.35839844 29.74316406 C-1.47359028 27.37537852 -2.62546661 25.02444258 -3.81738281 22.69433594 C-7.50015473 14.72478931 -7.50015473 14.72478931 -5.99951172 9.54980469 C-2.5565844 2.5565844 -2.5565844 2.5565844 0 0 Z " fill="#252019" transform="translate(151,264)"/>
<path d="M0 0 C0.33 0 0.66 0 1 0 C1.35315833 9.18211648 0.6911954 19.21785502 -4.09375 27.28515625 C-8.10716945 30.89558891 -13.82120169 30.76494473 -19 31 C-22.3203125 25.921875 -22.3203125 25.921875 -23 24 C-20.5257836 16.60680576 -12.98412108 10.6898432 -6.828125 6.3515625 C-4.28112598 4.46852476 -2.2024492 2.26919009 0 0 Z " fill="#201C1A" transform="translate(280,152)"/>
<path d="M0 0 C0.80373047 0.15243164 1.60746094 0.30486328 2.43554688 0.46191406 C8.3038314 1.57837108 14.15576178 2.76416476 20 4 C20 6.31 20 8.62 20 11 C-0.09105692 14.14964604 -0.09105692 14.14964604 -7.48046875 9.25 C-12.73749792 6.6418615 -19.23042922 7.08462037 -25 7 C-18.22342458 -0.57906461 -9.45940764 -1.85264896 0 0 Z " fill="#241F19" transform="translate(285,361)"/>
<path d="M0 0 C2.47101874 7.41305621 -1.07421139 18.52249782 -4.07714844 25.50439453 C-6.43415739 30.18281679 -9.13539276 34.61739576 -12 39 C-14 38 -14 38 -14.62817383 36.18115234 C-15.22834715 32.66050333 -14.90979181 29.1694886 -14.6875 25.625 C-14.63432617 24.51125 -14.63432617 24.51125 -14.58007812 23.375 C-14.157023 16.22726259 -13.01709564 11.42911614 -7.55859375 6.5625 C-7.00300781 6.088125 -6.44742188 5.61375 -5.875 5.125 C-5.31167969 4.62742188 -4.74835938 4.12984375 -4.16796875 3.6171875 C-2.78791055 2.40086502 -1.39519522 1.19892923 0 0 Z " fill="#211D1A" transform="translate(218,179)"/>
<path d="M0 0 C1.65328769 3.30657537 0.16175165 6.7090341 -0.6171875 10.18359375 C-0.79379913 10.9949025 -0.97041077 11.80621124 -1.15237427 12.6421051 C-1.72021688 15.24201196 -2.29770607 17.83967731 -2.875 20.4375 C-3.2570993 22.18541825 -3.63861702 23.93346374 -4.01953125 25.68164062 C-4.38489093 27.34907362 -4.75075956 29.01639519 -5.1171875 30.68359375 C-5.2901535 31.47116562 -5.46311951 32.25873749 -5.6413269 33.07017517 C-6.3157605 36.10163295 -7.01716379 39.05149136 -8 42 C-8.66 42 -9.32 42 -10 42 C-10.50682442 38.98017116 -11.00563335 35.95937183 -11.5 32.9375 C-11.71462891 31.66616211 -11.71462891 31.66616211 -11.93359375 30.36914062 C-14.01362159 17.54230227 -14.01362159 17.54230227 -10.91796875 12.83203125 C-10.02503023 11.81021501 -9.11427775 10.80372683 -8.1875 9.8125 C-7.28452136 8.79874224 -6.38216334 7.78443129 -5.48046875 6.76953125 C-4.25263672 5.39861328 -4.25263672 5.39861328 -3 4 C-1.98160368 2.68066429 -0.97239389 1.35359813 0 0 Z " fill="#2B2518" transform="translate(206,226)"/>
<path d="M0 0 C3.025454 5.32479905 3.025454 5.32479905 2.92578125 7.96875 C0.73566413 12.77407027 -5.36900014 15.04982256 -10 17 C-13.76276923 17.52134754 -17.23622261 17.46676767 -21 17 C-19.55714052 14.81339851 -18.10647847 12.63351019 -16.63671875 10.46484375 C-15.63943962 8.9629747 -14.67416987 7.43833092 -13.76953125 5.87890625 C-12.20398798 3.30885057 -10.92344204 1.29828785 -7.98046875 0.34765625 C-5.31827493 -0.00250618 -2.68203971 0 0 0 Z " fill="#1F1B1A" transform="translate(359,260)"/>
<path d="M0 0 C1.31484375 0.27263672 1.31484375 0.27263672 2.65625 0.55078125 C0.22249738 10.15769947 -2.19133588 18.57588109 -9.40625 25.67578125 C-9.9125293 26.17754883 -10.41880859 26.67931641 -10.94042969 27.19628906 C-13.36913296 29.40060986 -14.91773688 30.50557169 -18.21484375 30.85546875 C-18.91738281 30.75492188 -19.61992187 30.654375 -20.34375 30.55078125 C-18.73370194 27.52769524 -17.08737579 24.52611053 -15.42724609 21.53027344 C-14.63375433 20.0806044 -13.85183765 18.62458328 -13.07666016 17.16503906 C-11.68706675 14.55230622 -10.26731753 11.95763329 -8.84375 9.36328125 C-8.39346436 8.50114014 -7.94317871 7.63899902 -7.47924805 6.75073242 C-4.09339372 0.67426228 -4.09339372 0.67426228 0 0 Z " fill="#211D1A" transform="translate(232.34375,128.44921875)"/>
<path d="M0 0 C-1.63954307 6.39421796 -5.63184908 13.91609571 -11 18 C-13.48046875 18.29296875 -13.48046875 18.29296875 -16.1875 18.1875 C-17.53908203 18.14689453 -17.53908203 18.14689453 -18.91796875 18.10546875 C-19.60503906 18.07066406 -20.29210937 18.03585937 -21 18 C-20.71517632 16.58194169 -20.42181856 15.16559621 -20.125 13.75 C-19.96257812 12.96109375 -19.80015625 12.1721875 -19.6328125 11.359375 C-18.44780172 6.94118667 -18.44780172 6.94118667 -17 5 C-14.46255067 3.8942308 -12.13195734 3.03220788 -9.5 2.25 C-8.46552734 1.91935547 -8.46552734 1.91935547 -7.41015625 1.58203125 C-2.36927407 0 -2.36927407 0 0 0 Z " fill="#272219" transform="translate(192,334)"/>
<path d="M0 0 C4.17437899 1.39145966 7.19196096 2.50446237 10.875 4.625 C12.04675781 5.29402344 12.04675781 5.29402344 13.2421875 5.9765625 C14.11230469 6.48316406 14.11230469 6.48316406 15 7 C14.28602425 11.2838545 13.64295309 14.67447522 10.16015625 17.484375 C9.46792969 17.90203125 8.77570313 18.3196875 8.0625 18.75 C7.37285156 19.17796875 6.68320313 19.6059375 5.97265625 20.046875 C4 21 4 21 1 21 C0.67 14.07 0.34 7.14 0 0 Z " fill="#241F19" transform="translate(115,328)"/>
<path d="M0 0 C0.33 0 0.66 0 1 0 C0.88426734 1.85476817 0.75691885 3.70881274 0.625 5.5625 C0.55539063 6.59503906 0.48578125 7.62757813 0.4140625 8.69140625 C-0.47203826 15.77185286 -2.42300496 20.20740446 -7.0625 25.4375 C-7.52205078 25.97826172 -7.98160156 26.51902344 -8.45507812 27.07617188 C-9.60512328 28.41198056 -10.79888726 29.70991594 -12 31 C-12.33 31 -12.66 31 -13 31 C-14.18740416 23.96353089 -14.3211686 18.55251171 -10.36328125 12.54296875 C-7.18101328 8.18258456 -3.82372035 3.82372035 0 0 Z " fill="#231E19" transform="translate(248,218)"/>
<path d="M0 0 C4.23167361 5.06843864 7.43162915 10.6191151 10.71044922 16.32080078 C11.75360983 18.13126506 12.80804664 19.93483389 13.86328125 21.73828125 C14.52199219 22.87910156 15.18070313 24.01992188 15.859375 25.1953125 C16.46233398 26.23703613 17.06529297 27.27875977 17.68652344 28.35205078 C19 31 19 31 19 34 C10.5560706 25.67034934 2.31472832 17.36285225 -5 8 C-3.35 5.36 -1.7 2.72 0 0 Z " fill="#262119" transform="translate(137,289)"/>
<path d="M0 0 C1.83333333 0.45833333 3.66666667 0.91666667 5.5 1.375 C7.13195312 1.78298828 7.13195312 1.78298828 8.796875 2.19921875 C12.7734375 3.19335938 12.7734375 3.19335938 16.75 4.1875 C17.8225 4.455625 18.895 4.72375 20 5 C19.18174726 8.65433265 17.73565302 11.6796203 16 15 C11.85701333 14.40165275 8.81805623 12.99335715 5.1875 10.9375 C4.21167969 10.38964844 3.23585937 9.84179688 2.23046875 9.27734375 C1.49441406 8.85582031 0.75835937 8.43429687 0 8 C0 5.36 0 2.72 0 0 Z " fill="#231E19" transform="translate(201,388)"/>
<path d="M0 0 C3 6.625 3 6.625 3 10 C0.14173283 9.79735037 -2.70844029 9.56387081 -5.5625 9.3125 C-6.76229492 9.23225586 -6.76229492 9.23225586 -7.98632812 9.15039062 C-14.02179284 8.58379598 -17.41632569 7.00533151 -22 3 C-22 2.34 -22 1.68 -22 1 C-14.65623924 0.42240084 -7.36901413 -0.14738028 0 0 Z " fill="#2A2419" transform="translate(308,400)"/>
<path d="M0 0 C4.32483175 0.48053686 6.23076498 1.65781981 9 5 C10.63469033 7.69723904 11 8.78120986 11 12 C5.33357449 13.22517308 -0.23708518 13.09228867 -6 13 C-4.75696561 7.82069003 -3.14512215 4.29833361 0 0 Z " fill="#241F19" transform="translate(127,306)"/>
<path d="M0 0 C0.66 0 1.32 0 2 0 C7.24466791 7.25537708 7.57655382 13.12251887 6.9375 21.875 C6.88400391 23.00164062 6.83050781 24.12828125 6.77539062 25.2890625 C6.30657997 33.54013005 6.30657997 33.54013005 4 37 C3.42537085 32.69563028 2.85588123 28.39062019 2.29101562 24.08496094 C2.09839558 22.62221207 1.9044052 21.15964295 1.70898438 19.69726562 C1.4273264 17.58770489 1.15070443 15.47753357 0.875 13.3671875 C0.70742187 12.09987793 0.53984375 10.83256836 0.3671875 9.52685547 C0.03299612 6.31692944 -0.06941863 3.22362753 0 0 Z " fill="#312A18" transform="translate(162,245)"/>
<path d="M0 0 C3.10819813 0.93968781 5.82843953 2.2832351 8.6875 3.8125 C8.0275 6.7825 7.3675 9.7525 6.6875 12.8125 C1.59811189 11.22206621 -2.18706643 8.0678049 -6.3125 4.8125 C-5.11840969 1.23022908 -3.96328878 -0.32134774 0 0 Z " fill="#231E19" transform="translate(224.3125,410.1875)"/>
<path d="M0 0 C-0.8784298 3.08504546 -1.87068736 5.57309668 -4 8 C-7.67931093 9.0217367 -11.19703434 9.1049094 -15 9 C-11.71698113 2.43396226 -11.71698113 2.43396226 -8.625 0.5625 C-5.67907808 -0.06876898 -3.00432811 -0.13973619 0 0 Z " fill="#2A2419" transform="translate(299,296)"/>
<path d="M0 0 C1.32 2.31 2.64 4.62 4 7 C-4.57142857 7.28571429 -4.57142857 7.28571429 -8 5 C-2.25 0 -2.25 0 0 0 Z " fill="#262119" transform="translate(260,390)"/>
<path d="M0 0 C0.66 0 1.32 0 2 0 C3.87577309 2.54650408 5.38325812 5.27706631 7 8 C3.7 8 0.4 8 -3 8 C-1.125 2.25 -1.125 2.25 0 0 Z " fill="#3D3316" transform="translate(144,322)"/>
<path d="M0 0 C0.66 0.33 1.32 0.66 2 1 C-2.58399166 6.60265647 -6.82645952 11.07138333 -13 15 C-13.66 14.67 -14.32 14.34 -15 14 C-10.05 9.38 -5.1 4.76 0 0 Z " fill="#352E17" transform="translate(250,312)"/>
<path d="M0 0 C0.33 0.66 0.66 1.32 1 2 C-1.76791945 2.86478781 -4.53865626 3.71711674 -7.3125 4.5625 C-8.09818359 4.80935547 -8.88386719 5.05621094 -9.69335938 5.31054688 C-10.45068359 5.53935547 -11.20800781 5.76816406 -11.98828125 6.00390625 C-12.68477783 6.21861572 -13.38127441 6.4333252 -14.09887695 6.65454102 C-16 7 -16 7 -19 6 C-16.40074504 4.80057395 -13.79654493 3.61527179 -11.1875 2.4375 C-10.08051758 1.92413086 -10.08051758 1.92413086 -8.95117188 1.40039062 C-8.23896484 1.08134766 -7.52675781 0.76230469 -6.79296875 0.43359375 C-6.1383667 0.13509521 -5.48376465 -0.16340332 -4.80932617 -0.47094727 C-3 -1 -3 -1 0 0 Z " fill="#4B3F15" transform="translate(250,332)"/>
<path d="M0 0 C-9.405 0.495 -9.405 0.495 -19 1 C-16.41464321 -0.72357119 -14.96188386 -1.44735018 -12.0625 -2.1875 C-11.39347656 -2.36667969 -10.72445313 -2.54585938 -10.03515625 -2.73046875 C-6.04827365 -3.25848199 -3.58566182 -1.79283091 0 0 Z " fill="#483D15" transform="translate(301,336)"/>
<path d="M0 0 C2.16796875 0.21875 2.16796875 0.21875 5.16796875 3.21875 C-2.75203125 2.88875 -10.67203125 2.55875 -18.83203125 2.21875 C-18.83203125 1.88875 -18.83203125 1.55875 -18.83203125 1.21875 C-16.2696462 1.05013242 -13.70714701 0.88379227 -11.14453125 0.71875 C-10.42330078 0.67105469 -9.70207031 0.62335938 -8.95898438 0.57421875 C-4.47819522 0.30689541 -4.47819522 0.30689541 0 0 Z " fill="#413816" transform="translate(257.83203125,349.78125)"/>
<path d="M0 0 C0.33 0.99 0.66 1.98 1 3 C-0.328125 5.375 -0.328125 5.375 -2.25 8 C-2.87390625 8.86625 -3.4978125 9.7325 -4.140625 10.625 C-5.66888214 12.57705954 -7.19619893 14.30754468 -9 16 C-7.64175023 12.50376447 -6.15316912 9.11682003 -4.5 5.75 C-4.0771875 4.87859375 -3.654375 4.0071875 -3.21875 3.109375 C-2 1 -2 1 0 0 Z " fill="#463C15" transform="translate(236,266)"/>
<path d="M0 0 C0.33 0.66 0.66 1.32 1 2 C1.66 2.33 2.32 2.66 3 3 C1.35 7.29 -0.3 11.58 -2 16 C-3.0826674 11.66933041 -2.70725583 9.96270145 -1.5625 5.75 C-1.27503906 4.67234375 -0.98757812 3.5946875 -0.69140625 2.484375 C-0.46324219 1.66453125 -0.23507813 0.8446875 0 0 Z " fill="#453A15" transform="translate(198,303)"/>
</svg>
