<?xml version="1.0" encoding="UTF-8"?>
<svg version="1.1" xmlns="http://www.w3.org/2000/svg" width="512" height="512">
<path d="M0 0 C4.91893774 4.33353093 9.77369371 8.71274158 14.52734375 13.2265625 C15.06149902 13.73203613 15.5956543 14.23750977 16.14599609 14.75830078 C24.44404761 22.66672611 31.70349525 31.02385171 38.52734375 40.2265625 C38.95112305 40.78956055 39.37490234 41.35255859 39.81152344 41.93261719 C76.81711047 91.2259933 92.48749745 154.77368736 84.00610352 215.76342773 C78.56194032 250.30704771 66.55495652 284.38145191 46.52734375 313.2265625 C46.00946289 313.97599121 45.49158203 314.72541992 44.95800781 315.49755859 C37.44635359 326.26075492 29.387848 336.18563932 20.18261719 345.54052734 C18.59609359 347.15653501 17.0325888 348.79196011 15.47265625 350.43359375 C8.38885835 357.80612071 0.72297498 364.13017107 -7.47265625 370.2265625 C-8.03710449 370.65179199 -8.60155273 371.07702148 -9.18310547 371.51513672 C-39.87526731 394.55418807 -75.70609899 408.8925487 -113.47265625 415.2265625 C-114.68179687 415.4328125 -115.8909375 415.6390625 -117.13671875 415.8515625 C-172.89806503 424.15629587 -234.1994738 410.35475895 -280.47265625 378.2265625 C-281.22208496 377.70868164 -281.97151367 377.19080078 -282.74365234 376.65722656 C-293.50684867 369.14557234 -303.43173307 361.08706675 -312.78662109 351.88183594 C-314.40262876 350.29531234 -316.03805386 348.73180755 -317.6796875 347.171875 C-325.05221446 340.0880771 -331.37626482 332.42219373 -337.47265625 324.2265625 C-338.11050049 323.37989014 -338.11050049 323.37989014 -338.76123047 322.51611328 C-361.79101358 291.83629842 -376.22798083 255.99642903 -382.47265625 218.2265625 C-382.6010791 217.50339844 -382.72950195 216.78023438 -382.86181641 216.03515625 C-392.78669953 158.40142936 -376.22967621 95.71642163 -343.35546875 48.1640625 C-341.43952554 45.48025099 -339.47777908 42.84424831 -337.47265625 40.2265625 C-336.85003906 39.41058594 -336.22742188 38.59460938 -335.5859375 37.75390625 C-330.24100949 30.91283206 -324.44741951 24.51537886 -318.47265625 18.2265625 C-317.96573242 17.69095703 -317.45880859 17.15535156 -316.93652344 16.60351562 C-309.02963777 8.30695811 -300.67364137 1.04913141 -291.47265625 -5.7734375 C-290.9096582 -6.1972168 -290.34666016 -6.62099609 -289.76660156 -7.05761719 C-256.89951489 -31.73163898 -218.15062443 -46.59575294 -177.47265625 -51.7734375 C-176.75513184 -51.86915039 -176.03760742 -51.96486328 -175.29833984 -52.06347656 C-113.59269428 -59.34137769 -47.48595921 -40.24233832 0 0 Z " fill="#F9F9F9" transform="translate(405.47265625,73.7734375)"/>
<path d="M0 0 C4.91893774 4.33353093 9.77369371 8.71274158 14.52734375 13.2265625 C15.06149902 13.73203613 15.5956543 14.23750977 16.14599609 14.75830078 C24.44404761 22.66672611 31.70349525 31.02385171 38.52734375 40.2265625 C38.95112305 40.78956055 39.37490234 41.35255859 39.81152344 41.93261719 C76.81711047 91.2259933 92.48749745 154.77368736 84.00610352 215.76342773 C78.56194032 250.30704771 66.55495652 284.38145191 46.52734375 313.2265625 C46.00946289 313.97599121 45.49158203 314.72541992 44.95800781 315.49755859 C37.44635359 326.26075492 29.387848 336.18563932 20.18261719 345.54052734 C18.59609359 347.15653501 17.0325888 348.79196011 15.47265625 350.43359375 C8.38885835 357.80612071 0.72297498 364.13017107 -7.47265625 370.2265625 C-8.03710449 370.65179199 -8.60155273 371.07702148 -9.18310547 371.51513672 C-39.87526731 394.55418807 -75.70609899 408.8925487 -113.47265625 415.2265625 C-114.68179687 415.4328125 -115.8909375 415.6390625 -117.13671875 415.8515625 C-172.89806503 424.15629587 -234.1994738 410.35475895 -280.47265625 378.2265625 C-281.22208496 377.70868164 -281.97151367 377.19080078 -282.74365234 376.65722656 C-293.50684867 369.14557234 -303.43173307 361.08706675 -312.78662109 351.88183594 C-314.40262876 350.29531234 -316.03805386 348.73180755 -317.6796875 347.171875 C-325.05221446 340.0880771 -331.37626482 332.42219373 -337.47265625 324.2265625 C-338.11050049 323.37989014 -338.11050049 323.37989014 -338.76123047 322.51611328 C-361.79101358 291.83629842 -376.22798083 255.99642903 -382.47265625 218.2265625 C-382.6010791 217.50339844 -382.72950195 216.78023438 -382.86181641 216.03515625 C-392.78669953 158.40142936 -376.22967621 95.71642163 -343.35546875 48.1640625 C-341.43952554 45.48025099 -339.47777908 42.84424831 -337.47265625 40.2265625 C-336.85003906 39.41058594 -336.22742188 38.59460938 -335.5859375 37.75390625 C-330.24100949 30.91283206 -324.44741951 24.51537886 -318.47265625 18.2265625 C-317.96573242 17.69095703 -317.45880859 17.15535156 -316.93652344 16.60351562 C-309.02963777 8.30695811 -300.67364137 1.04913141 -291.47265625 -5.7734375 C-290.9096582 -6.1972168 -290.34666016 -6.62099609 -289.76660156 -7.05761719 C-256.89951489 -31.73163898 -218.15062443 -46.59575294 -177.47265625 -51.7734375 C-176.75513184 -51.86915039 -176.03760742 -51.96486328 -175.29833984 -52.06347656 C-113.59269428 -59.34137769 -47.48595921 -40.24233832 0 0 Z M-187.47265625 4.2265625 C-188.74254395 4.54052979 -188.74254395 4.54052979 -190.03808594 4.86083984 C-238.68076142 17.25393405 -280.01079642 46.62702373 -306.23828125 89.6796875 C-314.94253128 104.51740888 -321.33104934 120.53891709 -325.47265625 137.2265625 C-325.74722656 138.31195313 -326.02179688 139.39734375 -326.3046875 140.515625 C-329.36476309 153.14785824 -330.80645142 165.3192931 -330.73339844 178.28198242 C-330.72271767 180.5261568 -330.73333872 182.7695222 -330.74609375 185.01367188 C-330.78171962 220.67784783 -319.71115644 257.36814239 -298.47265625 286.2265625 C-297.7146875 287.268125 -296.95671875 288.3096875 -296.17578125 289.3828125 C-279.31350416 312.13906422 -258.45300917 329.91142653 -233.47265625 343.2265625 C-232.39113281 343.81953125 -231.30960937 344.4125 -230.1953125 345.0234375 C-214.91211517 353.08412034 -198.44341454 358.17546285 -181.47265625 361.2265625 C-180.54501465 361.40388916 -179.61737305 361.58121582 -178.66162109 361.76391602 C-169.40462375 363.38616473 -160.33892753 363.58377813 -150.97265625 363.5390625 C-150.18062805 363.53723969 -149.38859985 363.53541687 -148.5725708 363.53353882 C-99.09146233 363.34210927 -54.80066105 343.52474901 -19.28515625 309.3515625 C-13.4743854 303.406991 -8.44858417 296.87050014 -3.47265625 290.2265625 C-2.83457031 289.38351562 -2.19648438 288.54046875 -1.5390625 287.671875 C12.8072935 267.99119264 23.61651957 244.07913708 28.52734375 220.2265625 C28.945 218.4321875 28.945 218.4321875 29.37109375 216.6015625 C34.06352757 194.1794827 34.1587868 166.46852194 28.52734375 144.2265625 C28.31803223 143.38432129 28.1087207 142.54208008 27.89306641 141.67431641 C15.33749952 92.36728127 -14.55084195 51.10876179 -58.16455078 24.62451172 C-95.44211095 2.99360171 -145.17271311 -6.25115009 -187.47265625 4.2265625 Z " fill="#CC2E0E" transform="translate(405.47265625,73.7734375)"/>
<path d="M0 0 C1.51188148 -0.00945648 1.51188148 -0.00945648 3.05430603 -0.019104 C4.68560204 -0.01303131 4.68560204 -0.01303131 6.34985352 -0.00683594 C8.02725365 -0.00970612 8.02725365 -0.00970612 9.73854065 -0.01263428 C12.10483017 -0.01399602 14.47112716 -0.01030034 16.83740234 -0.00195312 C20.4608642 0.00873627 24.08382911 -0.00184387 27.70727539 -0.01464844 C30.00480253 -0.01332664 32.30232936 -0.01076384 34.59985352 -0.00683594 C36.22811317 -0.01290863 36.22811317 -0.01290863 37.88926697 -0.019104 C38.90034012 -0.01279968 39.91141327 -0.00649536 40.953125 0 C42.28524269 0.00238678 42.28524269 0.00238678 43.64427185 0.00482178 C47.28826624 0.39091274 49.36218905 1.4880012 51.77294922 4.22436523 C53.65987745 8.73882742 53.41071543 12.96666794 53.33422852 17.80957031 C53.32998367 18.82351364 53.32573883 19.83745697 53.32136536 20.88212585 C53.30460835 24.11212006 53.26696098 27.34148428 53.22875977 30.57128906 C53.21370911 32.76463941 53.20002137 34.95799956 53.18774414 37.15136719 C53.15471463 42.52072179 53.1045447 47.88971041 53.04125977 53.25878906 C53.60644821 53.25212723 54.17163666 53.24546539 54.75395203 53.23860168 C60.64255071 53.17217182 66.53104273 53.12695674 72.41992188 53.09399414 C74.61690597 53.07891855 76.81386003 53.0584548 79.01074219 53.0324707 C82.17072977 52.99603404 85.33031901 52.97905022 88.49047852 52.96582031 C89.96105965 52.94259453 89.96105965 52.94259453 91.46134949 52.91889954 C100.10582299 52.91677176 100.10582299 52.91677176 104.04125977 56.25878906 C106.21497537 59.51936247 106.29328413 60.44537253 106.30004883 64.2175293 C106.30635315 65.22545029 106.31265747 66.23337128 106.31915283 67.27183533 C106.31308014 68.90313133 106.31308014 68.90313133 106.30688477 70.56738281 C106.30879822 71.68564957 106.31071167 72.80391632 106.31268311 73.95606995 C106.31404485 76.32235946 106.31034917 78.68865645 106.30200195 81.05493164 C106.29131256 84.6783935 106.3018927 88.30135841 106.31469727 91.92480469 C106.31337547 94.22233182 106.31081267 96.51985865 106.30688477 98.81738281 C106.31093323 99.90288925 106.31498169 100.98839569 106.31915283 102.10679626 C106.30969635 103.62340599 106.30969635 103.62340599 106.30004883 105.1706543 C106.29845764 106.05873276 106.29686646 106.94681122 106.29522705 107.86180115 C106.0190106 110.46878057 105.44324068 112.05406011 104.04125977 114.25878906 C98.80295259 117.9266383 93.74966178 117.65144949 87.61157227 117.55175781 C86.62123993 117.54751297 85.63090759 117.54326813 84.61056519 117.53889465 C81.46218132 117.52216528 78.31444863 117.48452325 75.16625977 117.44628906 C73.02564404 117.43123482 70.88501824 117.41754771 68.74438477 117.40527344 C63.50978936 117.37228066 58.2755711 117.32213862 53.04125977 117.25878906 C53.05125252 118.0844487 53.05125252 118.0844487 53.06144714 118.92678833 C53.12795498 124.66955712 53.17312431 130.41221601 53.20605469 136.15527344 C53.22111618 138.29692023 53.24156948 140.4385363 53.26757812 142.58007812 C53.30407704 145.66316318 53.32101279 148.74583944 53.33422852 151.82910156 C53.34971237 152.78245392 53.36519623 153.73580627 53.38114929 154.7180481 C53.38246524 159.94760727 53.1467587 163.82361294 50.04125977 168.25878906 C46.9854332 170.19475642 44.56788396 170.52196487 40.98486328 170.56518555 C39.47793663 170.58916664 39.47793663 170.58916664 37.94056702 170.6136322 C36.86133469 170.6189949 35.78210236 170.6243576 34.67016602 170.62988281 C33.55568588 170.63891129 32.44120575 170.64793976 31.29295349 170.65724182 C28.93686612 170.67174377 26.58073848 170.68063091 24.22460938 170.68432617 C20.62048635 170.6962338 17.01806896 170.74543247 13.41430664 170.79589844 C11.12460145 170.80536139 8.83488576 170.81259704 6.54516602 170.81738281 C4.92935387 170.84668129 4.92935387 170.84668129 3.28089905 170.87657166 C-4.18860076 170.83152408 -4.18860076 170.83152408 -8.11523438 167.91137695 C-10.53938779 164.42330559 -11.08387062 161.93033767 -11.07226562 157.78735352 C-11.07219009 156.88664627 -11.07211456 155.98593903 -11.07203674 155.05793762 C-11.06687546 154.08910141 -11.06171417 153.1202652 -11.05639648 152.12207031 C-11.05498154 151.12749313 -11.05356659 150.13291595 -11.05210876 149.10820007 C-11.04650784 145.92919924 -11.03395519 142.75026864 -11.02124023 139.57128906 C-11.01622535 137.4169932 -11.01166243 135.26269624 -11.00756836 133.10839844 C-10.99653812 127.82517132 -10.9797991 122.54198521 -10.95874023 117.25878906 C-11.52392868 117.2654509 -12.08911713 117.27211273 -12.6714325 117.27897644 C-18.56003118 117.3454063 -24.4485232 117.39062138 -30.33740234 117.42358398 C-32.53438644 117.43865958 -34.7313405 117.45912332 -36.92822266 117.48510742 C-40.08821023 117.52154409 -43.24779948 117.5385279 -46.40795898 117.55175781 C-47.87854012 117.5749836 -47.87854012 117.5749836 -49.37882996 117.59867859 C-58.16530126 117.60084131 -58.16530126 117.60084131 -61.95874023 114.25878906 C-63.85775705 111.17513147 -64.22177496 108.79710896 -64.26513672 105.20239258 C-64.28112411 104.19777481 -64.29711151 103.19315704 -64.31358337 102.15809631 C-64.31894608 101.07886398 -64.32430878 99.99963165 -64.32983398 98.88769531 C-64.34337669 97.21597511 -64.34337669 97.21597511 -64.35719299 95.51048279 C-64.37169494 93.15439542 -64.38058209 90.79826778 -64.38427734 88.44213867 C-64.39618497 84.83801564 -64.44538364 81.23559826 -64.49584961 77.63183594 C-64.50531257 75.34213075 -64.51254821 73.05241505 -64.51733398 70.76269531 C-64.5368663 69.68548721 -64.55639862 68.60827911 -64.57652283 67.49842834 C-64.53135384 60.00879628 -64.53135384 60.00879628 -61.54882812 56.10229492 C-58.16957024 53.69709403 -56.5845176 53.13412847 -52.5090332 53.14526367 C-51.12782791 53.14537697 -51.12782791 53.14537697 -49.71871948 53.14549255 C-48.22491257 53.15323448 -48.22491257 53.15323448 -46.70092773 53.16113281 C-45.17364548 53.16325523 -45.17364548 53.16325523 -43.61550903 53.16542053 C-40.35488988 53.17103006 -37.09433873 53.18358419 -33.83374023 53.19628906 C-31.62670997 53.20130283 -29.41967864 53.20586595 -27.21264648 53.20996094 C-21.79465443 53.22100258 -16.37670219 53.23775001 -10.95874023 53.25878906 C-10.96540207 52.69360062 -10.9720639 52.12841217 -10.97892761 51.5460968 C-11.04535747 45.65749812 -11.09057255 39.7690061 -11.12353516 33.88012695 C-11.13861075 31.68314286 -11.15907449 29.4861888 -11.18505859 27.28930664 C-11.22149526 24.12931906 -11.23847907 20.96972982 -11.25170898 17.80957031 C-11.27493477 16.33898918 -11.27493477 16.33898918 -11.29862976 14.83869934 C-11.30075753 6.19422584 -11.30075753 6.19422584 -7.95874023 2.25878906 C-4.69816683 0.08507346 -3.77215677 0.0067647 0 0 Z " fill="#CC2E0E" transform="translate(234.958740234375,170.7412109375)"/>
</svg>
