<?xml version="1.0" encoding="UTF-8"?>
<svg version="1.1" xmlns="http://www.w3.org/2000/svg" width="512" height="512">
<path d="M0 0 C1.27359375 0.10441406 2.5471875 0.20882813 3.859375 0.31640625 C13.46339348 1.34809924 19.09458655 4.26528511 25.37890625 11.62890625 C37.52306105 26.9138668 43.07080313 43.46775771 42 63 C39.53152715 83.10341022 30.80982949 98.23848209 15.9375 111.4375 C6.9897991 119.40622704 1.60029849 128.48637036 -3.4375 139.25 C-8.88854891 150.45284535 -17.99382512 157.02263558 -28 164 C-37.51593336 170.90371636 -43.46876404 180.58798704 -46 192 C-46.33 194.97 -46.66 197.94 -47 201 C-131.48 201 -215.96 201 -303 201 C-299.12244996 196.47619163 -295.72195119 192.65387352 -291.375 188.75 C-290.32021022 187.79698819 -289.26552572 186.84385985 -288.2109375 185.890625 C-287.67823242 185.41173828 -287.14552734 184.93285156 -286.59667969 184.43945312 C-284.04924429 182.14286611 -281.52550311 179.82064292 -279 177.5 C-278.00012172 176.58320056 -277.0001215 175.66653411 -276 174.75 C-275.505 174.29625 -275.01 173.8425 -274.5 173.375 C-261 161 -247.5 148.625 -234 136.25 C-233.50491943 135.79616943 -233.00983887 135.34233887 -232.49975586 134.87475586 C-231.50059669 133.95887351 -230.50141053 133.0430206 -229.50219727 132.12719727 C-226.98910945 129.82377231 -224.47650522 127.51982398 -221.96484375 125.21484375 C-219.47708856 122.93193427 -216.98724147 120.65132224 -214.49658203 118.37158203 C-212.95286167 116.95679884 -211.41197221 115.538971 -209.87109375 114.12109375 C-208.87249633 113.20561953 -207.87380212 112.29025088 -206.875 111.375 C-205.98554688 110.55773437 -205.09609375 109.74046875 -204.1796875 108.8984375 C-200.79651626 105.95180449 -198.35852824 105.60949087 -193.86383057 105.66943359 C-188.37711202 106.30275487 -183.22888816 108.25832776 -178.03945541 110.0743103 C-175.89023849 110.82630287 -173.73579767 111.5611797 -171.57937622 112.29223633 C-167.00595981 113.84625803 -162.4403545 115.42248445 -157.875 117 C-152.57314075 118.82892839 -147.26828112 120.64852271 -141.95770645 122.45199585 C-139.84355667 123.1742217 -137.73427566 123.90952161 -135.62496948 124.64575195 C-134.32032983 125.09124496 -133.01549944 125.53617992 -131.71044922 125.98046875 C-130.58065643 126.37129639 -129.45086365 126.76212402 -128.28683472 127.16479492 C-124.69427747 128.07768599 -121.69218989 128.2805191 -118 128 C-115.38436412 126.12763823 -115.38436412 126.12763823 -113.25 123.375 C-112.62230713 122.63781738 -112.62230713 122.63781738 -111.98193359 121.88574219 C-110.62782386 120.27726653 -109.31075495 118.64394905 -108 117 C-107.34209473 116.18160645 -107.34209473 116.18160645 -106.67089844 115.34667969 C-104.37138118 112.47522691 -102.1022614 109.5817184 -99.8515625 106.671875 C-96.94339106 102.91356084 -93.97642908 99.20435229 -91 95.5 C-87.15697843 90.71087105 -83.34449793 85.89993921 -79.5625 81.0625 C-75.05741077 75.30382072 -70.45883855 69.6257169 -65.83618164 63.96118164 C-62.344813 59.67568562 -58.90188166 55.35679581 -55.5 51 C-51.02088732 45.26359254 -46.44655322 39.61017959 -41.84472656 33.97192383 C-38.26615552 29.57960574 -34.73874136 25.15143585 -31.25 20.6875 C-13.7586144 -1.67983083 -13.7586144 -1.67983083 0 0 Z " fill="#000000" transform="translate(304,311)"/>
<path d="M0 0 C0.33 0 0.66 0 1 0 C1 78.87 1 157.74 1 239 C-4.94 239.99 -10.88 240.98 -17 242 C-20.22528403 243.14988387 -22.68536397 244.06310942 -25.5625 245.6875 C-26.21613525 246.03707764 -26.86977051 246.38665527 -27.54321289 246.74682617 C-37.49374535 252.26308382 -44.0117889 260.19027158 -51 269 C-59.76790489 279.94206017 -68.35947161 290.6419317 -83 293 C-99.39116474 294.06142362 -115.3750389 291.77274918 -128.46484375 280.96484375 C-140.64134967 269.47719174 -147.62578358 252.597592 -149 236 C-149.10506789 231.68578392 -149.05849885 227.37725167 -149 223.0625 C-148.73334687 203.37227129 -152.23380428 184.79575312 -164.6796875 168.84765625 C-166 167 -166 167 -166 165 C-164.52905273 163.58105469 -164.52905273 163.58105469 -162.49609375 161.921875 C-159.45501344 159.34366942 -156.73325079 156.69419343 -154.09765625 153.703125 C-153.43314453 152.97222656 -152.76863281 152.24132812 -152.08398438 151.48828125 C-150.74412536 150.00472721 -149.43086785 148.49667725 -148.14648438 146.96484375 C-141.9020719 140.26207116 -135.10298486 139.29205107 -126.42062378 138.28393555 C-123.92894194 137.991665 -121.44719434 137.65371528 -118.96313477 137.30273438 C-115.48651686 136.81261171 -112.00949744 136.32609413 -108.53125 135.84765625 C-107.66371094 135.72793457 -106.79617188 135.60821289 -105.90234375 135.48486328 C-104.11348422 135.24215535 -102.32372922 135.00596988 -100.53320312 134.77587891 C-97.89930542 134.43499359 -95.27024305 134.06760067 -92.640625 133.6953125 C-91.44690277 133.55127487 -91.44690277 133.55127487 -90.22906494 133.40432739 C-86.62552592 132.87236805 -84.23468282 132.14237635 -81.08886719 130.23388672 C-77.74996206 125.06474959 -77.57135716 119.59695783 -76.9375 113.5625 C-76.77976103 112.23610997 -76.61948181 110.9100198 -76.45678711 109.58422852 C-75.94718439 105.39212267 -75.47114014 101.19657942 -75 97 C-74.45371664 92.13409851 -73.89354979 87.27065004 -73.29714966 82.41061401 C-73.06650142 80.47114703 -72.8619929 78.5286288 -72.65795898 76.58618164 C-71.46941611 66.78386928 -71.46941611 66.78386928 -68.55859375 63.72265625 C-64.17529588 60.77145875 -60.2899822 60.85300578 -55.19140625 60.82421875 C-53.62433545 60.80102594 -52.0572781 60.77690882 -50.49023438 60.75195312 C-48.02358918 60.71681013 -45.55744155 60.68747252 -43.09057617 60.67407227 C-40.7069109 60.65859547 -38.32468973 60.61839987 -35.94140625 60.57421875 C-35.20588028 60.57612717 -34.47035431 60.57803558 -33.71253967 60.58000183 C-30.47584075 60.50272802 -28.47798266 60.39242823 -25.93313599 58.30308533 C-23.84727891 55.81805227 -22.70520525 53.60776385 -21.45043945 50.62060547 C-20.99349197 49.54624237 -20.53654449 48.47187927 -20.06575012 47.36495972 C-19.58643539 46.21069489 -19.10712067 45.05643005 -18.61328125 43.8671875 C-18.11080368 42.67900421 -17.60832611 41.49082092 -17.09062195 40.26663208 C-15.75904513 37.11784438 -14.4391091 33.96430868 -13.1217041 30.80957031 C-11.77729499 27.59548138 -10.42257295 24.38574861 -9.06835938 21.17578125 C-6.6922234 15.54209854 -4.3256681 9.90445479 -1.96650696 4.26364136 C-1.35193258 2.82425598 -0.69993313 1.39986626 0 0 Z " fill="#000000" transform="translate(511,151)"/>
<path d="M0 0 C33.79200728 -1.55763414 66.05391666 13.00365721 94 31 C95.51013672 31.96486328 95.51013672 31.96486328 97.05078125 32.94921875 C114.88668791 44.59571144 131.67674556 57.77007441 147.18359375 72.3671875 C149.43589 74.47266277 151.7145241 76.50397942 154.0625 78.5 C159.67651266 83.34133135 164.80073705 88.72274811 170 94 C172.80686771 92.69659491 174.6281151 91.4744343 177.0625 89.4375 C181.64278882 85.63683481 185.46648092 85.65808368 191.20703125 85.71875 C196.49887174 86.25163464 199.60877355 88.57117284 203.3125 92.375 C206.57242616 97.44599625 207.50542133 101.70756713 206.67578125 107.625 C204.91186168 113.82420865 200.54594286 118.6118339 196 123 C197.05574219 124.18529297 197.05574219 124.18529297 198.1328125 125.39453125 C217.47160659 147.37164192 234.50300468 172.02476702 248 198 C248.3496582 198.66370605 248.69931641 199.32741211 249.05957031 200.01123047 C264.5655488 229.54815762 280.19204017 266.94377908 274 301 C270.6315571 298.23454997 269.09145914 294.46767341 267.25 290.625 C266.53255569 289.16472236 265.81378865 287.7050939 265.09375 286.24609375 C264.73796875 285.52276855 264.3821875 284.79944336 264.015625 284.05419922 C254.63894447 265.08896123 242.81915603 247.78302383 230 231 C229.50081055 230.34628418 229.00162109 229.69256836 228.48730469 229.01904297 C222.73961481 221.52980698 216.7542871 214.26535081 210.62109375 207.08984375 C208.17696666 204.22422306 205.80304266 201.30594478 203.4375 198.375 C199.56420728 193.61479947 195.49240008 189.07195216 191.33984375 184.5546875 C189.34165152 182.37302185 187.37851111 180.16988691 185.4375 177.9375 C179.19746118 170.77679971 172.86150121 163.79993687 166.09765625 157.12890625 C164.24393165 155.24756564 162.5186663 153.32654593 160.8125 151.3125 C157.43825163 147.36273731 153.76284086 143.76425833 150.0625 140.125 C145.38548614 135.50528307 141.05574858 130.83636809 137.04296875 125.6171875 C130.02170434 116.62245107 122.31733924 108.1550105 114.5703125 99.78515625 C112.25188577 97.27294005 109.96431882 94.73736905 107.6875 92.1875 C88.78802226 71.06591912 88.78802226 71.06591912 68.0625 51.78515625 C65.82817647 49.85128153 63.68184477 47.83344085 61.53173828 45.80688477 C54.88438337 39.56017355 47.95394114 33.84429456 40.70556641 28.31152344 C39.06461783 27.04968895 37.44226703 25.76757455 35.82421875 24.4765625 C24.60360628 15.6174488 12.65371028 7.67195633 0 1 C0 0.67 0 0.34 0 0 Z " fill="#000000" transform="translate(70,1)"/>
<path d="M0 0 C0.66 0 1.32 0 2 0 C2.3403125 0.88300781 2.680625 1.76601563 3.03125 2.67578125 C10.42796302 20.99051482 22.03789377 34.56082871 40.421875 42.47265625 C52.78656298 47.18497623 65.52272928 49.26230033 78.6953125 47.5078125 C97.13912779 45.11602563 114.76103444 46.52031568 130 58 C130.65484375 58.47308594 131.3096875 58.94617188 131.984375 59.43359375 C142.78095595 67.86543683 150.26572205 82.76033834 153 96 C153 97.32 153 98.64 153 100 C97.56 100 42.12 100 -15 100 C-15.66 97.69 -16.32 95.38 -17 93 C-19.78564428 85.13530952 -23.55121819 77.94171995 -27.78930664 70.78344727 C-33.13485988 61.63903548 -35.37981276 53.73447551 -34 43 C-30.00522097 29.91141504 -18.75309006 20.69292447 -9.296875 11.40234375 C-6.36671719 8.33763788 -3.84946771 5.05527003 -1.375 1.6171875 C-0.92125 1.08351563 -0.4675 0.54984375 0 0 Z " fill="#000000" transform="translate(350,412)"/>
<path d="M0 0 C3.88093695 3.76720986 7.39625622 7.7368792 10.875 11.875 C15.0579823 16.80926963 19.31598977 21.52889932 24 26 C20.74649004 33.58581534 13.03940428 39.05315917 6.8984375 44.3203125 C4.40903281 46.5228722 2.1054897 48.88352636 -0.22265625 51.25390625 C-2.06593574 53.06477643 -3.97822799 54.75321354 -5.9375 56.4375 C-8.74576347 58.85617779 -11.39970593 61.35899683 -14 64 C-17.2215855 67.27202128 -20.58592145 70.29316055 -24.06640625 73.28515625 C-26.56431556 75.5004738 -28.88024989 77.8689817 -31.21875 80.25 C-33.71896185 82.70634849 -36.37680516 84.96309368 -39.03125 87.25 C-40.93023071 88.93798286 -42.72005988 90.68769734 -44.5 92.5 C-47.53832417 95.59356643 -50.7476532 98.42105507 -54.03125 101.25 C-55.93023071 102.93798286 -57.72005988 104.68769734 -59.5 106.5 C-61.89053167 108.93389732 -64.35046262 111.21355559 -66.9375 113.4375 C-69.74576347 115.85617779 -72.39970593 118.35899683 -75 121 C-78.2215855 124.27202128 -81.58592145 127.29316055 -85.06640625 130.28515625 C-87.56431556 132.5004738 -89.88024989 134.8689817 -92.21875 137.25 C-94.71896185 139.70634849 -97.37680516 141.96309368 -100.03125 144.25 C-101.93023071 145.93798286 -103.72005988 147.68769734 -105.5 149.5 C-108.53832417 152.59356643 -111.7476532 155.42105507 -115.03125 158.25 C-116.93023071 159.93798286 -118.72005988 161.68769734 -120.5 163.5 C-123.52328291 166.57127153 -126.6838631 169.42371871 -129.953125 172.23046875 C-131.35553466 173.44285725 -132.7403029 174.67586913 -134.109375 175.92578125 C-139.78579173 181.07937012 -143.84961323 183.51157217 -151.65625 183.31640625 C-156.83222159 182.61765009 -160.67835705 180.28686287 -164.375 176.6875 C-167.66851429 171.24053406 -168.4551746 166.33389984 -167.53125 160.12890625 C-165.40319259 151.60102912 -156.41264827 145.30915949 -150.03515625 139.81640625 C-147.94141459 137.94771168 -145.96873103 135.99955265 -144 134 C-140.7784145 130.72797872 -137.41407855 127.70683945 -133.93359375 124.71484375 C-131.43568444 122.4995262 -129.11975011 120.1310183 -126.78125 117.75 C-124.28103815 115.29365151 -121.62319484 113.03690632 -118.96875 110.75 C-117.06976929 109.06201714 -115.27994012 107.31230266 -113.5 105.5 C-110.46167583 102.40643357 -107.2523468 99.57894493 -103.96875 96.75 C-102.06976929 95.06201714 -100.27994012 93.31230266 -98.5 91.5 C-96.10946833 89.06610268 -93.64953738 86.78644441 -91.0625 84.5625 C-88.25423653 82.14382221 -85.60029407 79.64100317 -83 77 C-79.7784145 73.72797872 -76.41407855 70.70683945 -72.93359375 67.71484375 C-70.43568444 65.4995262 -68.11975011 63.1310183 -65.78125 60.75 C-63.28103815 58.29365151 -60.62319484 56.03690632 -57.96875 53.75 C-56.06976929 52.06201714 -54.27994012 50.31230266 -52.5 48.5 C-50.10946833 46.06610268 -47.64953738 43.78644441 -45.0625 41.5625 C-42.25423653 39.14382221 -39.60029407 36.64100317 -37 34 C-33.7784145 30.72797872 -30.41407855 27.70683945 -26.93359375 24.71484375 C-24.43568444 22.4995262 -22.11975011 20.1310183 -19.78125 17.75 C-17.28752486 15.30002442 -14.63760197 13.0484615 -11.98828125 10.76953125 C-9.38571246 8.45329616 -6.95936552 5.98870008 -4.54296875 3.48046875 C-3 2 -3 2 0 0 Z " fill="#000000" transform="translate(193,135)"/>
<path d="M0 0 C0 25.74 0 51.48 0 78 C-2.26146555 74.9847126 -4.1883489 72.08404023 -6.125 68.875 C-17.05358737 51.69168652 -31.8875786 42.87821895 -51 37 C-27.87425569 4.88091068 -27.87425569 4.88091068 -11.765625 0.375 C-7.87733975 -0.15222512 -3.92386653 0 0 0 Z " fill="#000000" transform="translate(512,407)"/>
<path d="M0 0 C12.64191709 3.14959358 25.30922016 9.59234545 36 17 C32.98612664 18.61960484 30.02378513 19.64652232 26.75 20.625 C10.5746241 26.010288 -3.08101291 35.36877556 -17 45 C-20.54555888 38.34262828 -20.20785594 31.00021008 -20.25 23.625 C-20.270625 22.73039062 -20.29125 21.83578125 -20.3125 20.9140625 C-20.35423529 13.73559293 -19.45160166 7.4038332 -15.1796875 1.47265625 C-10.629433 -1.60161964 -5.23262622 -0.6378498 0 0 Z " fill="#000000" transform="translate(247,257)"/>
<path d="M0 0 C3.34721399 2.75835227 4.9091516 6.48867888 6.75 10.3125 C7.45279166 11.750163 8.15592372 13.18765964 8.859375 14.625 C9.21322266 15.35203125 9.56707031 16.0790625 9.93164062 16.828125 C10.95951339 18.91769449 12.01242924 20.99200538 13.078125 23.0625 C13.40200195 23.69502686 13.72587891 24.32755371 14.05957031 24.97924805 C14.95409612 26.72301604 15.85195848 28.46507124 16.75 30.20703125 C18 33 18 33 18 36 C3.15 36 -11.7 36 -27 36 C-25.8704836 25.83435242 -25.8704836 25.83435242 -24.1875 22.75 C-23.87167969 22.14671875 -23.55585938 21.5434375 -23.23046875 20.921875 C-19.87203531 15.67632183 -15.89658064 12.10377689 -11 8.375 C-10.07574219 7.65957031 -10.07574219 7.65957031 -9.1328125 6.9296875 C-6.10843044 4.59325501 -3.0647712 2.28325455 0 0 Z " fill="#000000" transform="translate(300,476)"/>
<path d="M0 0 C4.68762849 1.46379477 7.85979666 4.19889982 11.375 7.5 C11.94718262 8.03608887 12.51936523 8.57217773 13.10888672 9.12451172 C20.34012581 16.06001141 26.69398252 23.73604212 28 34 C27.77691407 37.86463572 26.96652702 40.92608109 24.3125 43.875 C13.76708044 49.00520411 2.12799424 47.49766604 -9 45 C-6.99691974 39.85641199 -4.73297323 34.83186688 -2.47851562 29.79492188 C-2.17494141 29.10849609 -1.87136719 28.42207031 -1.55859375 27.71484375 C-1.14565063 26.78853149 -1.14565063 26.78853149 -0.72436523 25.84350586 C1.08125364 21.24821495 1.151583 16.89127262 1.125 12 C1.12886719 11.2884375 1.13273437 10.576875 1.13671875 9.84375 C1.13033978 6.42461983 1.07200732 3.26706994 0 0 Z " fill="#000000" transform="translate(379,204)"/>
<path d="M0 0 C2.75329021 1.79562405 4.52627461 3.05254922 6 6 C6.88169236 12.18153548 4.04926038 16.7912287 1.3125 22.125 C0.87744141 23.01832031 0.44238281 23.91164062 -0.00585938 24.83203125 C-2.37613097 29.53043628 -4.34661293 33.21414141 -9 36 C-12.4655444 36.50539189 -14.49094567 36.19668008 -17.75 34.9375 C-21.02207679 32.11987832 -21.52306391 30.29242479 -22 26 C-21.14526613 22.42394432 -19.6345362 19.2826558 -18 16 C-17.44183594 14.86949219 -16.88367188 13.73898438 -16.30859375 12.57421875 C-9.24776196 -1.13569006 -9.24776196 -1.13569006 0 0 Z " fill="#000000" transform="translate(383,142)"/>
<path d="M0 0 C3.16173227 2.41290094 4.26658147 4.16827129 5 8 C5.21549483 11.14332704 5.1851118 14.28747026 5.1875 17.4375 C5.19974609 18.28376953 5.21199219 19.13003906 5.22460938 20.00195312 C5.23714706 25.33882587 5.10026434 29.65739747 1.375 33.8125 C-2.07940156 35.53970078 -5.21353734 35.72308219 -9 35 C-11.43119623 33.12984906 -12.64069173 31.71861655 -14 29 C-14.29599687 25.06875325 -14.27802989 21.1285823 -14.3125 17.1875 C-14.35600586 15.5468457 -14.35600586 15.5468457 -14.40039062 13.87304688 C-14.46426034 5.81072328 -14.46426034 5.81072328 -12.16796875 1.80078125 C-8.09786928 -1.57996804 -4.97470292 -1.13458137 0 0 Z " fill="#000000" transform="translate(349,125)"/>
</svg>
